<svg width="160" height="150" viewBox="0 0 160 150" fill="none" xmlns="http://www.w3.org/2000/svg">
<path d="M74.291 132.335C74.1518 132.028 74.2631 131.944 73.8733 131.135L71.1445 124.047C71.0331 123.572 70.866 123.265 70.6433 122.819C70.3927 123.377 68.4713 126 68.0815 126.112C68.0815 126.112 66.8563 126.921 65.6311 126.586C64.4895 126.279 66.4665 129.795 66.7449 130.521C66.7449 130.521 69.0004 130.326 69.1953 129.405C69.3902 128.456 69.9471 130.186 67.8866 130.772C65.8539 131.358 66.7449 132.474 67.1905 134.763C67.1905 134.763 67.7474 135.349 68.6663 134.986C69.5852 134.623 70.7268 133.73 70.7268 133.73C70.7268 133.73 71.6735 133.563 71.0888 134.205C70.504 134.847 69.4738 135.6 68.5827 135.628C67.7195 135.656 67.3575 135.907 67.3575 135.907L67.8309 137.609C72.5089 137.191 74.4024 135.572 75.5997 131.749C74.9036 131.805 75.015 132.363 74.291 132.335Z" fill="#38A23C"/>
<path d="M97.4025 134.679C96.8456 134.037 96.0102 134.009 95.4812 133.87C95.5926 133.73 95.6483 133.535 95.6483 133.34C95.6483 132.865 95.2584 132.502 94.8129 132.502C94.7015 132.502 94.5901 132.53 94.5066 132.558C94.4509 132.53 94.3674 132.53 94.3117 132.53C93.7269 132.419 93.6991 132.391 93.894 132.251C94.0889 132.112 93.9219 131.888 93.7826 131.581C93.6434 131.274 93.9497 131.135 93.9219 130.772C93.894 130.409 93.8383 130.437 93.532 130.577C93.2257 130.716 93.1979 130.633 93.17 130.465C93.1422 130.298 93.1979 130.158 92.8916 130.047C92.5853 129.935 92.4182 130.019 92.1676 130.158C91.917 130.298 91.7778 130.633 91.6664 130.298C91.555 129.963 91.5829 129.544 91.4993 129.126C91.4158 128.707 91.3044 128.484 90.9981 128.847C90.6918 129.209 90.9146 129.879 90.9146 130.13C90.9146 130.381 90.9146 130.354 90.8032 130.465C90.6918 130.577 90.5247 130.354 90.2741 130.381C90.0514 130.409 90.2184 130.716 90.0792 130.995C89.94 131.247 89.8008 131.079 89.6058 130.884C89.4109 130.688 89.1325 130.549 88.6313 129.963C88.13 129.377 88.3528 129.516 88.1022 129.042C87.8516 128.595 87.4618 128.819 87.0162 128.093C86.5429 127.367 85.9024 127.423 85.8467 127.619C85.7911 127.786 86.2366 128.93 86.8492 129.46C87.4618 129.991 88.6591 130.688 88.8819 130.995C89.1046 131.33 88.7705 131.554 88.7705 131.554C88.7705 131.554 88.7705 131.554 88.6591 131.609C88.5756 131.637 87.9351 132.084 87.5731 131.833C87.2112 131.581 87.0998 131.637 86.6543 131.581C86.2366 131.526 86.6264 132.056 87.1833 132.279C87.7402 132.474 87.9908 132.698 88.1579 133.005C88.325 133.284 87.5731 133.674 87.5731 133.674C87.5731 133.674 87.601 134.958 87.8238 134.902C88.0465 134.847 88.5477 134.651 88.3807 135.209C88.2136 135.767 88.6034 135.879 88.6313 136.242C88.687 136.577 87.8794 137.023 88.4085 137.051C88.9654 137.079 89.216 136.633 89.6058 136.102C89.9957 135.6 89.7729 136.744 89.6337 137.219C89.4945 137.693 89.6337 138.391 90.4969 138C91.3601 137.637 90.7475 136.716 90.5526 136.242C90.3577 135.767 90.831 135.46 91.7221 135.154C92.6131 134.847 92.8359 135.656 93.4206 136.521C94.0054 137.386 94.0889 136.186 93.7826 135.516C93.4763 134.847 93.9497 135.07 94.7294 134.902C95.509 134.735 96.3165 135.6 97.2911 135.712C98.3492 135.823 98.0708 135.433 97.4025 134.679Z" fill="#38A23C"/>
<path d="M11.5836 135.879C11.4165 135.823 11.2495 135.795 11.0824 135.74C9.96857 135.46 10.1356 135.516 11.0824 135.795C12.6139 136.214 13.5606 136.521 15.1756 136.353C15.4819 136.353 15.7604 136.688 16.3451 137.051C15.7325 136.66 15.3984 136.298 15.1478 136.298C13.9504 136.521 12.7809 136.214 11.5836 135.879Z" fill="#38A23C"/>
<path d="M97.0962 130.856C97.5576 130.856 97.9316 130.481 97.9316 130.019C97.9316 129.556 97.5576 129.181 97.0962 129.181C96.6349 129.181 96.2609 129.556 96.2609 130.019C96.2609 130.481 96.6349 130.856 97.0962 130.856Z" fill="#38A23C"/>
<path d="M101.44 125.609C102.498 125.191 103.445 124.409 104.28 123.265C105.116 122.121 105.533 120.753 105.533 119.163C105.533 117.6 105.116 116.232 104.308 115.088C103.501 113.916 102.498 113.135 101.329 112.688C100.159 112.27 98.7112 112.046 96.957 112.046H90.5804V106.549H103.473V102.53H85.791V126.223H96.957C98.8783 126.251 100.382 126.028 101.44 125.609ZM90.5526 122.232V116.037H95.3976C97.2911 116.037 98.5998 116.288 99.3795 116.763C100.159 117.265 100.549 118.046 100.549 119.135C100.549 119.888 100.326 120.502 99.8807 121.005C99.4352 121.507 98.9061 121.842 98.2935 121.981C97.6809 122.121 96.6507 122.205 95.1749 122.205H90.5526V122.232Z" fill="white"/>
<path d="M98.2657 134.623C98.5733 134.623 98.8226 134.373 98.8226 134.065C98.8226 133.757 98.5733 133.507 98.2657 133.507C97.9582 133.507 97.7088 133.757 97.7088 134.065C97.7088 134.373 97.9582 134.623 98.2657 134.623Z" fill="#38A23C"/>
<path d="M1.78164 133.73C1.69868 133.73 1.69868 133.758 1.78164 133.73V133.73Z" fill="#38A23C"/>
<path d="M1.7821 133.73C1.83779 133.73 1.86564 133.758 1.92133 133.786C1.94918 133.786 1.94918 133.758 1.92133 133.73L1.89349 133.702C1.83779 133.702 1.80995 133.702 1.7821 133.73Z" fill="#38A23C"/>
<path d="M17.988 137.135C17.5982 136.939 17.1526 136.716 16.6793 136.521C17.0412 136.744 17.4311 136.967 17.988 137.135Z" fill="#38A23C"/>
<path d="M7.85233 133.088C7.32327 132.893 6.76636 132.698 6.2373 132.558C6.79421 132.698 7.32327 132.893 7.85233 133.088C8.65984 133.395 9.4395 133.702 10.2749 133.898C10.5255 133.953 10.7761 133.981 10.9988 134.009C10.7761 133.981 10.5255 133.953 10.2749 133.898C9.4395 133.674 8.65984 133.367 7.85233 133.088Z" fill="#38A23C"/>
<path d="M1.92126 133.702C1.92126 133.674 2.00527 133.758 1.92126 133.702V133.702Z" fill="#38A23C"/>
<path d="M65.0464 138.168C65.1021 138.14 65.2413 138.084 65.4084 138C66.8563 134.679 64.7679 133.2 64.7679 133.2C64.6844 132.391 63.0415 131.302 62.4289 130.912C60.0343 129.991 56.0524 130.326 55.9132 130.326C55.4676 130.381 55.0221 130.409 54.5766 130.465C54.2703 130.521 53.964 130.549 53.6577 130.577C47.8937 131.163 43.355 130.716 37.3683 131.888C36.9506 131.972 36.5607 132.028 36.1431 132.084V124.186C36.9784 125.107 37.8138 125.749 38.5656 126.112C39.3453 126.502 40.2085 126.67 41.1552 126.67C43.1601 126.67 44.8308 125.888 46.2509 124.27C47.6431 122.679 48.3393 120.447 48.3393 117.572C48.3393 114.781 47.6431 112.605 46.2509 111.042C44.8586 109.479 43.1601 108.698 41.1831 108.698C40.0414 108.698 39.0111 108.949 38.0644 109.479C37.1177 110.009 36.3937 110.707 35.8368 111.572V109.061H31.6043V131.554C31.0474 131.442 30.5462 131.386 29.9336 131.386C29.6551 131.33 29.3767 131.302 29.0982 131.274C27.0655 131.079 25.1721 131.191 23.1394 131.414C20.9117 131.581 20.6054 131.135 18.6284 130.828C16.2337 130.521 14.1454 131.079 11.8064 131.777C11.6114 131.861 11.4444 131.888 11.2494 131.916C11.4444 131.916 11.6114 131.888 11.8064 131.833C12.4468 131.637 13.0872 131.498 13.7555 131.386C15.7325 131.107 11.9177 132.14 11.862 132.14C11.4165 132.363 10.971 132.335 10.4976 132.279C9.71796 132.14 8.9383 131.888 8.18648 131.637C7.10051 131.302 6.18162 131.023 5.06781 130.884C4.17677 130.828 3.00727 130.856 2.14407 131.219C2.14407 131.219 3.954 130.912 5.03997 131.023C6.15378 131.163 7.07267 131.442 8.13079 131.805C8.85476 132.056 9.55089 132.307 10.3027 132.447C10.1913 132.447 10.0521 132.447 9.94072 132.475C9.66227 132.502 9.21675 132.586 9.02183 132.865C8.68769 132.754 8.3257 132.614 7.99156 132.502C7.23974 132.251 6.54361 132 5.79179 131.833C5.54118 131.777 5.26273 131.721 5.01212 131.693C4.98428 131.693 4.98428 131.693 5.01212 131.693C6.09809 131.888 6.93344 132.168 7.96371 132.558C8.77123 132.865 9.52305 133.172 10.3584 133.368C10.9988 133.507 11.5001 133.563 12.1405 133.395H12.1962C12.6139 133.451 13.0315 133.535 13.4492 133.563C13.0594 133.647 12.6696 133.758 12.2519 133.898C11.8064 134.037 11.4444 134.065 11.0267 134.009C11.4165 134.037 11.8064 134.037 12.2519 133.898C12.5303 133.814 13.0315 133.702 13.5884 133.563C13.9504 133.591 14.3403 133.563 14.7579 133.479C15.8996 133.284 16.4287 133.535 16.9577 133.842C15.9274 133.87 15.0642 133.981 14.1175 134.177C13.5884 134.177 13.1151 134.121 12.5303 133.981C13.0872 134.093 13.5606 134.177 14.0897 134.177C13.6163 134.288 13.1429 134.4 12.6139 134.54C11.5836 134.4 10.9153 134.288 12.0013 134.54C12.1127 134.568 12.224 134.595 12.3633 134.623C11.5836 134.791 10.9988 134.735 10.247 134.54C9.38382 134.288 8.60416 133.954 7.79664 133.619C6.84991 133.228 5.9867 132.893 5.01212 132.726C4.98428 132.726 4.95643 132.726 4.95643 132.726L5.01212 132.754C5.9867 133.116 6.76637 133.563 7.68526 134.149C7.82449 134.233 7.93587 134.316 8.0751 134.4C7.93587 134.344 7.79664 134.261 7.65742 134.233C7.32328 134.093 6.98913 133.954 6.65499 133.814C6.73853 133.87 6.82206 133.954 6.96129 134.009C6.293 133.73 5.68041 133.507 4.95643 133.368C3.84262 133.172 3.00727 133.2 1.94915 133.647C1.89346 133.674 1.83777 133.674 1.83777 133.702C1.83777 133.702 1.86561 133.702 1.89346 133.702C1.9213 133.702 1.97699 133.73 2.00484 133.73C3.06296 133.312 3.87047 133.256 4.98428 133.423C5.70825 133.563 6.34869 133.758 7.01698 134.037C7.23974 134.149 7.49035 134.288 7.65742 134.372C8.49277 134.791 9.27244 135.154 10.1635 135.433C10.9432 135.656 11.5557 135.74 12.2797 135.628C13.2265 135.879 14.0618 136.019 15.2035 135.879C15.2035 135.879 15.9553 136.186 16.7906 136.549C16.0667 136.074 15.6768 135.656 15.1756 135.656C14.201 135.768 13.4771 135.684 12.6974 135.516C12.8923 135.461 13.0594 135.433 13.2543 135.377C14.3124 135.154 15.3148 135.014 16.4008 135.098C16.4843 135.098 16.54 135.126 16.6236 135.126C17.264 135.544 17.9323 136.13 19.7979 136.074C20.0207 136.158 20.2435 136.242 20.4941 136.298C20.7447 136.409 20.8839 136.493 20.856 136.549C20.689 136.577 11.3051 135.042 19.7422 136.716C20.3827 136.744 21.1067 136.661 21.7192 136.521C22.2483 136.577 22.8609 136.605 23.6127 136.549C24.0582 136.521 24.5038 136.465 24.9214 136.437C25.7568 136.465 26.5643 136.493 27.4275 136.354C27.4832 136.354 27.5389 136.326 27.5946 136.326C28.0958 136.326 28.6249 136.354 29.1539 136.381C28.7084 136.465 28.1793 136.577 27.5389 136.772C25.534 137.079 24.0304 136.493 21.8028 136.828C18.2386 137.386 16.373 135.851 16.8742 136.214C18.8512 137.498 23.7241 137.386 20.2435 137.47C19.3524 137.442 18.6563 137.302 18.0715 137.107C18.7955 137.498 19.1853 137.805 18.4335 137.749C17.5146 137.609 16.8742 137.302 16.4287 137.023C17.3754 137.637 18.9904 138.335 21.942 137.805C22.5268 137.721 23.0558 137.665 23.6406 137.693C25.2556 137.637 25.896 137.916 27.706 137.637C29.6273 137.079 30.212 137.079 32.1055 137.386C32.9687 137.526 33.6927 137.609 34.361 137.665C35.5305 138.112 36.7 138.614 37.8138 139.033C39.9857 139.814 42.2133 140.177 44.4409 140.316C44.4688 140.316 59.9229 139.34 64.0161 138.53C64.3224 138.419 64.6844 138.279 65.0464 138.168ZM10.08 135.321C9.21675 135.042 8.40924 134.679 7.57388 134.288C7.40681 134.205 7.26758 134.149 7.10051 134.093C7.26758 134.149 7.40681 134.233 7.57388 134.288C8.40924 134.651 9.21675 135.014 10.08 135.293C10.8039 135.516 11.3887 135.628 12.057 135.572C11.3887 135.628 10.7761 135.516 10.08 135.321ZM15.2035 134.986C14.9807 135.014 14.7301 135.042 14.5073 135.07C14.925 134.986 15.3148 134.93 15.7325 134.902H15.7882C15.5933 134.93 15.3984 134.958 15.2035 134.986ZM16.1224 134.874C16.373 134.847 16.6793 134.847 16.9577 134.847C16.6514 134.847 16.4008 134.847 16.1224 134.874ZM11.9456 132.391C13.0872 132.028 14.1732 131.721 15.3148 131.442C18.0994 130.8 13.0315 132.363 12.1126 132.67C11.8899 132.642 11.6671 132.586 11.4165 132.558H11.3608C11.5557 132.502 11.7507 132.474 11.9456 132.391ZM12.0848 133.144C11.9456 133.2 11.8064 133.228 11.6671 133.256C11.5836 133.256 11.5001 133.256 11.4444 133.284H11.5279C11.1659 133.34 10.8039 133.284 10.3862 133.228C9.94072 133.144 9.52305 133.005 9.10537 132.865L9.96857 132.558C10.4698 132.502 10.9432 132.53 11.4444 132.586C11.6393 132.614 11.8342 132.642 12.0291 132.67H12.0013L11.9456 132.698C11.7785 132.809 11.9456 132.726 12.0013 132.698L12.1126 132.67C12.3633 132.698 12.6139 132.726 12.8645 132.754C12.6139 132.837 12.3354 132.921 12.057 133.005C11.6114 133.2 11.4722 133.256 12.057 133.033C12.2797 132.949 12.586 132.865 12.9202 132.754C13.0315 132.754 13.1708 132.781 13.2821 132.781C12.8366 132.949 12.4189 133.061 12.0848 133.144ZM13.0315 133.2C13.5606 133.088 14.034 132.977 14.4516 132.893C13.9783 133.061 13.5049 133.144 13.0315 133.2ZM13.3378 132.809C13.2265 132.809 13.1151 132.781 13.0037 132.781C13.9783 132.474 15.2313 132.168 15.8996 132.168C15.8996 132.168 14.5352 132.474 13.3378 132.809ZM17.1526 133.005C16.8742 132.865 16.5957 132.754 16.2059 132.67C16.2616 132.67 16.2894 132.67 16.3451 132.67C16.7071 132.726 16.9577 132.865 17.2083 133.005H17.1526ZM17.3197 135.265C17.7652 135.377 18.1551 135.488 18.4892 135.6C18.1272 135.488 17.7095 135.377 17.3197 135.265ZM19.5473 133.116C19.1575 133.228 19.2689 133.172 18.7677 133.061C18.2386 132.949 17.8209 132.921 17.3197 132.977C17.0969 132.865 16.902 132.726 16.6514 132.642C18.0715 132.614 18.9347 132.949 20.1042 133.144C19.9093 133.144 19.7422 133.144 19.5473 133.116ZM21.1902 133.34C21.1902 133.34 21.2459 133.312 21.2737 133.312H21.3016L21.1902 133.34ZM26.3416 132.168C25.6454 132.419 24.5873 132.419 23.3343 132.586C23.3064 132.586 23.2507 132.586 23.2229 132.586C19.8815 132.837 18.7398 131.47 15.0086 132.195C14.2846 132.363 13.6163 132.558 12.9202 132.754C12.6696 132.726 12.4468 132.698 12.1962 132.642C18.3221 130.661 18.1551 132.447 23.195 132.195C24.4759 132.056 25.6454 131.972 26.8149 131.972C26.6757 132.056 26.5086 132.112 26.3416 132.168ZM37.1733 113.581C37.8973 112.716 38.8162 112.298 39.93 112.298C40.9881 112.298 41.8792 112.744 42.6032 113.609C43.3271 114.474 43.6891 115.814 43.6891 117.628C43.6891 119.554 43.355 120.949 42.631 121.814C41.9349 122.651 41.0438 123.098 40.0136 123.098C38.9276 123.098 37.9809 122.623 37.229 121.702C36.4772 120.781 36.0874 119.358 36.0874 117.405C36.0874 115.702 36.4494 114.447 37.1733 113.581ZM49.3139 137.777C48.1444 137.972 46.0003 138.67 44.9143 137.888C44.6637 137.637 46.3623 137.414 48.1165 137.274C48.4228 137.302 48.7569 137.302 49.0911 137.33C49.9264 137.358 50.734 137.414 51.5415 137.442C50.7896 137.554 50.0657 137.665 49.3139 137.777ZM50.372 134.261C48.7848 134.205 47.1419 134.037 47.4482 133.647C48.3114 132.865 49.8429 133.479 51.0124 133.647C51.9313 133.758 52.8502 133.786 53.7691 133.786C52.6274 133.926 51.4858 134.093 50.372 134.261Z" fill="#38A23C"/>
<path d="M8.3257 131.191C7.23974 130.828 6.26516 130.549 5.1235 130.437C1.6707 130.242 2.72881 130.353 5.1235 130.493C5.31842 130.521 5.51333 130.549 5.68041 130.577C6.5993 130.716 7.40681 130.967 8.29786 131.247C9.04968 131.498 9.8015 131.749 10.5812 131.888C10.8039 131.916 11.0267 131.944 11.2494 131.916C11.0267 131.916 10.8039 131.888 10.5812 131.86C9.82934 131.693 9.07752 131.442 8.3257 131.191Z" fill="#38A23C"/>
<path d="M138.279 131.777C136.609 131.358 136.219 130.856 136.358 129.935C136.469 129.014 135.69 127.033 135.077 128.484C134.465 129.935 134.938 131.33 133.518 130.465C132.126 129.6 130.121 129.181 131.736 130.66C133.351 132.139 133.156 133.172 131.903 133.786C131.903 133.786 130.705 135.126 131.736 135.014C132.766 134.902 132.766 135.126 133.072 135.851C133.379 136.577 133.462 137.916 134.186 137.191C134.91 136.465 134.882 135.767 135.523 136.521C136.163 137.274 137.973 138.056 137.333 136.409C136.72 134.763 136.442 133.172 137.945 133.842C139.477 134.428 139.95 132.195 138.279 131.777Z" fill="#38A23C"/>
<path d="M126.751 138.223C127.059 138.223 127.308 137.973 127.308 137.665C127.308 137.357 127.059 137.107 126.751 137.107C126.444 137.107 126.194 137.357 126.194 137.665C126.194 137.973 126.444 138.223 126.751 138.223Z" fill="#38A23C"/>
<path d="M142.512 109.06H128.673C128.589 113.498 128.283 116.651 127.782 118.493C127.28 120.335 126.64 121.674 125.86 122.54H124.023V130.772H127.698V126.223H140.674V130.772H144.377V122.54H142.54V109.06H142.512ZM138.001 122.54H130.288C131.596 120.809 132.348 117.544 132.543 112.8H138.029L138.001 122.54Z" fill="white"/>
<path d="M159.943 126.642C159.776 126.502 158.3 126.391 157.381 126.809C156.462 127.228 155.098 128.205 154.624 128.288C154.597 128.288 154.569 128.288 154.541 128.288C154.123 128.288 154.068 127.87 154.068 127.87C154.068 127.87 154.068 127.87 154.068 127.73C154.068 127.619 153.9 126.67 154.374 126.419C154.847 126.167 154.847 125.972 155.126 125.526C155.404 125.079 154.597 125.247 154.068 125.777C153.538 126.307 153.176 126.474 152.759 126.502C152.731 126.502 152.703 126.502 152.675 126.502C152.397 126.419 152.313 125.805 152.313 125.581V125.526C152.202 123.991 152.174 121.144 152.202 120.614C152.23 120.14 152.369 119.805 152.397 119.302C152.452 118.074 152.369 116.009 152.341 114.726L152.313 104.847C152.452 104.261 152.842 103.507 154.012 102.837C155.07 102.223 155.794 101.191 156.267 100.298C156.267 100.27 156.267 100.242 156.267 100.214C156.267 99.7954 155.933 99.4326 155.321 99.0977C154.095 98.428 151.84 97.9814 149.222 97.9814C147.218 97.9814 145.408 98.2605 144.127 98.6791C145.853 102.949 148.471 101.833 150.336 103.647C151.84 105.237 150.921 109.367 150.893 111.572C150.865 114.251 151.45 116.484 151.506 118.995C151.534 120.809 151.06 123.07 150.782 125.163C150.754 125.442 150.67 126.084 150.141 125.609C149.612 125.135 149.278 125.498 148.86 125.358C148.443 125.247 148.387 124.102 148.053 124.688C147.747 125.302 148.109 125.805 148.471 126.502C148.833 127.2 147.691 126.363 147.218 125.944C146.744 125.554 145.937 125.33 145.881 126.502C145.853 127.674 147.19 127.451 147.802 127.479C148.443 127.507 148.526 128.205 148.415 129.349C148.387 129.767 148.22 130.019 147.969 130.158C147.942 130.186 147.886 130.186 147.83 130.214C147.385 130.409 146.744 130.409 146.02 130.521C144.767 130.716 146.048 131.442 146.939 131.442C147.83 131.442 147.357 131.833 147.134 132.809C146.911 133.786 145.547 134.233 144.906 135.237C144.266 136.27 144.823 136.158 146.02 135.823C147.218 135.461 147.663 134.177 148.164 133.814C148.666 133.451 148.61 133.535 148.888 134.037C149.139 134.54 149.612 134.037 150.03 133.451C150.448 132.865 150.503 132.837 150.559 133.116C150.615 133.423 150.949 133.34 151.339 133.34C151.729 133.34 151.756 133.758 152.174 133.926C152.564 134.093 152.592 134.009 152.592 133.591C152.592 133.172 152.703 133.2 152.926 133.256C153.149 133.312 153.26 133.423 153.538 133.144C153.817 132.865 153.817 132.642 153.789 132.279C153.761 131.916 153.455 131.609 153.9 131.637C154.346 131.665 154.791 131.944 155.293 132.056C155.794 132.167 156.1 132.167 155.877 131.665C155.627 131.135 154.764 131.051 154.485 130.94C154.207 130.828 154.235 130.828 154.151 130.661C154.068 130.493 154.429 130.409 154.513 130.13C154.597 129.851 154.151 129.879 153.928 129.6C153.706 129.321 153.984 129.237 154.29 129.126C154.597 129.014 154.903 128.763 155.822 128.512C156.741 128.261 156.462 128.456 157.103 128.4C157.743 128.344 157.687 127.814 158.718 127.674C159.859 127.535 160.138 126.809 159.943 126.642Z" fill="#38A23C"/>
<path d="M116.115 130.884C116.476 130.353 116.866 129.6 117.256 128.595L118.342 125.609L124.385 109.088H119.707L115.697 121.284L111.576 109.088H106.759L113.274 126.307C112.996 127.256 112.606 128.065 112.105 128.679C111.604 129.293 110.824 129.6 109.766 129.6C109.181 129.6 108.541 129.516 107.844 129.377L108.234 132.921C109.07 133.116 109.933 133.2 110.796 133.2C111.659 133.2 112.439 133.116 113.107 132.921C113.803 132.726 114.36 132.474 114.834 132.167C115.335 131.833 115.753 131.414 116.115 130.884Z" fill="white"/>
<path d="M106.48 129.768C105.283 130.019 104.169 130.019 104.782 129.07C105.394 128.121 103.918 127.535 103.445 128.651C102.972 129.74 102.582 129.963 101.969 129.768C101.357 129.572 99.9086 129.907 100.828 130.465C101.746 131.051 102.749 130.884 101.997 131.749C101.245 132.614 100.744 133.926 101.941 132.977C103.139 132.028 103.807 132.279 104.085 133.2C104.085 133.2 104.865 134.177 104.893 133.451C104.949 132.726 105.088 132.754 105.617 132.642C106.146 132.53 107.065 132.586 106.647 132.028C106.229 131.442 105.756 131.386 106.341 131.023C106.953 130.688 107.677 129.544 106.48 129.768Z" fill="#38A23C"/>
<path d="M124.329 133.535C124.79 133.535 125.164 133.16 125.164 132.698C125.164 132.235 124.79 131.861 124.329 131.861C123.867 131.861 123.493 132.235 123.493 132.698C123.493 133.16 123.867 133.535 124.329 133.535Z" fill="#38A23C"/>
<path d="M122.324 138.865C122.908 138.865 123.382 138.39 123.382 137.805C123.382 137.219 122.908 136.744 122.324 136.744C121.74 136.744 121.266 137.219 121.266 137.805C121.266 138.39 121.74 138.865 122.324 138.865Z" fill="#38A23C"/>
<path d="M118.871 134.623C118.342 134.344 118.732 134.54 118.203 134.512C117.674 134.484 117.869 134.4 116.365 134.791C114.834 135.181 116.114 135.265 115.975 135.572C115.836 135.879 115.947 135.572 115.418 135.991C114.889 136.409 115.196 136.242 114.945 136.967C114.694 137.693 114.778 137.972 114.778 137.972C114.778 137.972 114.889 138.502 115.001 138.753C115.112 139.005 115.196 138.949 115.613 139.367C116.031 139.758 115.78 139.479 116.393 139.563C117.006 139.674 116.755 139.647 117.312 139.73C117.897 139.842 118.537 138.726 118.676 138.53C118.815 138.335 120.208 137.721 120.152 137.47C120.096 137.219 119.762 135.433 119.539 135.07C119.345 134.707 119.4 134.902 118.871 134.623Z" fill="#38A23C"/>
<path d="M120.041 140.456H119.317V141.488H120.041V140.456Z" fill="#38A23C"/>
<path d="M146.132 108.614C147.496 108.614 148.777 108.223 149.835 107.526C150.086 107.358 150.336 107.163 150.587 106.967C150.615 106.27 150.615 105.544 150.587 104.847C150.587 104.707 150.531 104.567 150.476 104.456C150.364 104.233 150.225 104.065 150.141 103.926L149.863 103.619C149.863 103.619 149.863 103.619 149.835 103.591C148.025 103.423 146.438 102.614 145.213 101.414C143.848 100.047 143.013 98.1488 143.013 96.0558C143.013 93.9628 143.848 92.0651 145.213 90.6977C146.577 89.3302 148.471 88.493 150.559 88.493C152.647 88.493 154.541 89.3302 155.905 90.6977C157.27 92.0651 158.105 93.9628 158.105 96.0558C158.105 98.3721 156.574 101.693 154.513 102.865C153.817 103.256 153.399 103.674 153.176 104.009C156.601 102.865 158.913 99.6837 158.913 96.0558C158.913 93.7395 157.966 91.6465 156.462 90.1395C154.959 88.6325 152.87 87.6837 150.559 87.6837C148.248 87.6837 146.159 88.6325 144.656 90.1395C144.043 90.7535 143.514 91.4791 143.124 92.2605C143.041 92.4 142.985 92.5674 142.902 92.7349L140.368 98.1209C140.089 98.5674 139.839 99.0698 139.672 99.5721C139.449 100.242 139.31 100.995 139.31 101.749C139.282 105.544 142.345 108.614 146.132 108.614Z" fill="#38A23C"/>
<path d="M78.1058 102.558H73.3721V107.302H78.1058V102.558Z" fill="white"/>
<path d="M75.4883 108.251C71.9241 108.279 74.5973 118.688 73.8733 119.721C73.7619 119.888 73.7341 119.916 73.2885 119.135C72.7873 118.214 72.8152 118.047 71.5065 118.493C70.9496 118.688 70.9217 118.549 70.9774 119.972C71.0052 120.67 71.6178 121.702 71.8963 122.344L72.9266 124.744C73.1493 125.247 73.2329 125.442 73.3999 126L75.0706 129.516L76.2401 129.488C76.5186 129.321 76.992 127.702 76.992 127.256C76.992 126.028 76.0174 124.242 75.544 122.623C75.1542 121.34 75.4605 118.437 75.8225 117.07C76.3794 115.144 78.8576 108.223 75.4883 108.251Z" fill="white"/>
<path d="M150.531 89.1628C146.716 89.1628 143.653 92.2605 143.653 96.0559C143.653 96.8652 143.793 97.6187 144.043 98.3442C145.324 97.7861 147.413 97.4233 149.752 97.4233C153.176 97.4233 156.045 98.2047 156.657 99.2373C156.685 99.2652 156.685 99.2931 156.713 99.321C156.908 98.8187 156.991 98.4559 156.991 98.4559C157.27 97.7024 157.409 96.8931 157.409 96.0559C157.437 92.2605 154.346 89.1628 150.531 89.1628Z" fill="#38A23C"/>
<path d="M12.5581 120.865H22.0534L24.0861 126.251H29.2374L19.7701 102.558H14.7022L5.51331 126.251H10.5811L12.5581 120.865ZM17.2083 108.084L20.494 116.847H14.0061L17.2083 108.084Z" fill="white"/>
<path d="M16.8185 140.456H16.0945V141.488H16.8185V140.456Z" fill="#38A23C"/>
<path d="M80.7232 146.009C80.7232 146.512 80.6954 146.791 80.6675 146.874C80.6397 146.958 80.584 147.014 80.5283 147.042C80.4726 147.07 80.2777 147.07 79.9435 147.07V147.823C80.1663 147.851 80.3334 147.851 80.5004 147.851C80.7789 147.851 80.9738 147.767 81.113 147.628C81.2523 147.488 81.3358 147.321 81.3915 147.098C81.4193 146.902 81.4472 146.484 81.4472 145.87V143.191H83.3407V147.795H84.0646V142.437H80.7232V146.009Z" fill="white"/>
<path d="M76.7692 142.493C76.1566 142.493 75.6832 142.828 75.3212 143.526C75.3212 143.023 75.3769 142.605 75.4883 142.298C75.5719 141.963 75.7389 141.739 75.9617 141.6C76.1844 141.46 76.5743 141.377 77.159 141.377C77.6046 141.377 77.883 141.349 78.0501 141.321C78.1893 141.293 78.3285 141.181 78.4399 141.042C78.5513 140.902 78.607 140.651 78.6348 140.288H77.9944C77.9665 140.344 77.9387 140.4 77.883 140.428C77.8273 140.456 77.5489 140.456 77.0476 140.456C76.268 140.456 75.6832 140.707 75.3212 141.181C74.9593 141.684 74.7643 142.633 74.7643 144.084C74.7643 145.2 74.8479 145.981 75.0149 146.456C75.182 146.93 75.4048 147.293 75.6832 147.572C75.9617 147.851 76.3515 147.963 76.797 147.963C77.4375 147.963 77.9109 147.684 78.245 147.153C78.5791 146.623 78.7462 145.953 78.7462 145.172C78.7462 144.363 78.5791 143.693 78.2171 143.219C77.7995 142.716 77.3261 142.493 76.7692 142.493ZM77.6045 146.679C77.3818 147.07 77.1033 147.237 76.7692 147.237C76.4351 147.237 76.1288 147.07 75.8782 146.763C75.6275 146.456 75.5162 145.953 75.5162 145.312C75.5162 144.67 75.6275 144.139 75.8225 143.777C76.0452 143.414 76.3515 143.219 76.7414 143.219C77.1033 143.219 77.3818 143.386 77.6045 143.721C77.8273 144.056 77.9387 144.53 77.9387 145.116C77.9665 145.786 77.8273 146.288 77.6045 146.679Z" fill="white"/>
<path d="M71.228 142.353C70.6711 142.353 70.1977 142.577 69.8079 143.051C69.4459 143.525 69.251 144.223 69.251 145.144C69.251 146.065 69.4459 146.763 69.8079 147.237C70.1699 147.712 70.6433 147.935 71.2002 147.935C71.7849 147.935 72.2304 147.712 72.6203 147.237C72.9823 146.763 73.1772 146.037 73.1772 145.088C73.1772 144.195 72.9823 143.525 72.6203 143.051C72.2583 142.605 71.8128 142.353 71.228 142.353ZM72.1191 146.707C71.8685 147.042 71.59 147.209 71.2559 147.209C70.8939 147.209 70.6154 147.042 70.3648 146.707C70.1142 146.372 70.0028 145.842 70.0028 145.144C70.0028 144.446 70.1142 143.944 70.3648 143.609C70.6154 143.274 70.8939 143.107 71.228 143.107C71.59 143.107 71.8685 143.274 72.1191 143.609C72.3697 143.944 72.481 144.474 72.481 145.144C72.481 145.842 72.3697 146.372 72.1191 146.707Z" fill="white"/>
<path d="M67.4689 142.493H64.5452C64.5452 144.726 64.3224 146.26 63.8212 147.098H63.4592V149.358H64.0439V147.851H67.3297V149.358H67.9144V147.098H67.4689V142.493ZM66.7449 147.098H64.4895C64.8515 146.26 65.0742 144.977 65.1299 143.247H66.7449V147.098Z" fill="white"/>
<path d="M95.6204 145.033C95.9546 144.781 96.1216 144.391 96.1216 143.888C96.1216 143.553 96.0381 143.274 95.8989 143.023C95.7318 142.8 95.5647 142.633 95.3698 142.577C95.1749 142.493 94.8964 142.465 94.5066 142.465H92.8637V147.823H94.7572C95.3141 147.823 95.7318 147.684 95.9546 147.377C96.1773 147.098 96.3165 146.735 96.3165 146.316C96.3165 145.702 96.0938 145.256 95.6204 145.033ZM93.5599 143.246H94.3395C94.7294 143.246 94.98 143.302 95.147 143.414C95.3141 143.526 95.3977 143.721 95.3977 144C95.3977 144.167 95.342 144.335 95.2584 144.446C95.1749 144.558 95.0635 144.642 94.9521 144.698C94.8407 144.726 94.618 144.753 94.3117 144.753H93.5599V143.246ZM95.3698 146.902C95.2027 147.042 94.9243 147.098 94.5345 147.098H93.5877V145.479H94.4509C94.8964 145.479 95.2027 145.535 95.342 145.674C95.509 145.814 95.5926 146.009 95.5926 146.288C95.5926 146.567 95.509 146.763 95.3698 146.902Z" fill="white"/>
<path d="M61.6771 145.005C62.0113 144.726 62.1783 144.391 62.1783 143.972C62.1783 143.526 62.0391 143.163 61.7885 142.856C61.5379 142.549 61.1759 142.381 60.7582 142.381C59.9507 142.381 59.4495 142.884 59.2268 143.888L59.895 144.028C60.0621 143.442 60.3406 143.135 60.7304 143.135C60.9253 143.135 61.0924 143.219 61.2316 143.358C61.343 143.498 61.4265 143.693 61.4265 143.944C61.4265 144.14 61.3708 144.307 61.2873 144.447C61.2038 144.586 61.0924 144.67 60.981 144.698C60.8696 144.726 60.6747 144.726 60.3684 144.754V145.451H60.5912C60.8418 145.451 61.0367 145.479 61.1481 145.507C61.2594 145.535 61.3708 145.647 61.4544 145.786C61.5657 145.926 61.5936 146.121 61.5936 146.344C61.5936 146.623 61.5101 146.847 61.3708 147.014C61.2038 147.181 61.0088 147.265 60.7582 147.265C60.5076 147.265 60.3127 147.181 60.1178 146.986C59.9229 146.791 59.8115 146.54 59.7558 146.177L59.0875 146.372C59.2546 147.461 59.7837 148.019 60.7582 148.019C61.2595 148.019 61.6214 147.879 61.8999 147.572C62.1783 147.265 62.3176 146.874 62.3176 146.4C62.3176 145.73 62.0948 145.284 61.6771 145.005Z" fill="white"/>
<path d="M46.8635 142.353C46.3066 142.353 45.8332 142.577 45.4434 143.051C45.0814 143.525 44.8865 144.223 44.8865 145.144C44.8865 146.065 45.0814 146.763 45.4434 147.237C45.8054 147.712 46.2787 147.935 46.8356 147.935C47.4204 147.935 47.8659 147.712 48.2557 147.237C48.6177 146.763 48.8126 146.037 48.8126 145.088C48.8126 144.195 48.6177 143.525 48.2557 143.051C47.8938 142.605 47.4204 142.353 46.8635 142.353ZM47.7545 146.707C47.5039 147.042 47.2255 147.209 46.8913 147.209C46.5293 147.209 46.2509 147.042 46.0003 146.707C45.7497 146.372 45.6383 145.842 45.6383 145.144C45.6383 144.446 45.7497 143.944 46.0003 143.609C46.2509 143.274 46.5293 143.107 46.8635 143.107C47.2255 143.107 47.5039 143.274 47.7545 143.609C48.0051 143.944 48.1165 144.474 48.1165 145.144C48.1165 145.842 47.9773 146.372 47.7545 146.707Z" fill="white"/>
<path d="M52.4325 144.698H50.2606V145.619H52.4325V144.698Z" fill="white"/>
<path d="M55.7739 142.353C55.217 142.353 54.7437 142.577 54.3538 143.051C53.9919 143.525 53.7969 144.223 53.7969 145.144C53.7969 146.065 53.9919 146.763 54.3538 147.237C54.7158 147.712 55.1892 147.935 55.7461 147.935C56.3309 147.935 56.7764 147.712 57.1662 147.237C57.5282 146.763 57.7231 146.037 57.7231 145.088C57.7231 144.195 57.5282 143.525 57.1662 143.051C56.8042 142.605 56.3308 142.353 55.7739 142.353ZM56.6371 146.707C56.3865 147.042 56.1081 147.209 55.7739 147.209C55.412 147.209 55.1335 147.042 54.8829 146.707C54.6323 146.372 54.5209 145.842 54.5209 145.144C54.5209 144.446 54.6323 143.944 54.8829 143.609C55.1335 143.274 55.412 143.107 55.7461 143.107C56.1081 143.107 56.3865 143.274 56.6371 143.609C56.8878 143.944 56.9991 144.474 56.9991 145.144C56.9991 145.842 56.8878 146.372 56.6371 146.707Z" fill="white"/>
<path d="M89.3552 142.353C88.2971 142.353 87.6845 143.135 87.5453 144.698H86.6821V142.465H85.9581V147.823H86.6821V145.451H87.5453C87.601 146.232 87.7681 146.846 88.0744 147.293C88.3807 147.739 88.7983 147.963 89.3274 147.963C89.8843 147.963 90.3577 147.712 90.664 147.237C90.9981 146.763 91.1652 146.065 91.1652 145.144C91.1652 144.279 90.9981 143.581 90.664 143.107C90.3577 142.605 89.9122 142.353 89.3552 142.353ZM90.1071 146.763C89.8843 147.07 89.6337 147.209 89.3274 147.209C88.9933 147.209 88.7427 147.042 88.5477 146.679C88.3528 146.344 88.2693 145.786 88.2693 145.06C88.2693 144.446 88.3528 143.972 88.5477 143.637C88.7427 143.302 89.0211 143.135 89.3552 143.135C90.0792 143.135 90.4412 143.832 90.4412 145.2C90.4412 145.953 90.3298 146.484 90.1071 146.763Z" fill="white"/>
<path d="M142.094 142.353C141.537 142.353 141.064 142.577 140.674 143.051C140.312 143.525 140.117 144.223 140.117 145.144C140.117 146.065 140.312 146.763 140.674 147.237C141.036 147.712 141.509 147.935 142.066 147.935C142.651 147.935 143.097 147.712 143.486 147.237C143.848 146.763 144.043 146.037 144.043 145.088C144.043 144.195 143.848 143.525 143.486 143.051C143.124 142.605 142.651 142.353 142.094 142.353ZM142.957 146.707C142.707 147.042 142.428 147.209 142.094 147.209C141.732 147.209 141.454 147.042 141.203 146.707C140.952 146.372 140.841 145.842 140.841 145.144C140.841 144.446 140.952 143.944 141.203 143.609C141.454 143.274 141.732 143.107 142.066 143.107C142.428 143.107 142.707 143.274 142.957 143.609C143.208 143.944 143.319 144.474 143.319 145.144C143.319 145.842 143.208 146.372 142.957 146.707Z" fill="white"/>
<path d="M136.803 142.493C136.191 142.493 135.718 142.828 135.356 143.526C135.356 143.023 135.411 142.605 135.523 142.298C135.606 141.963 135.773 141.739 135.996 141.6C136.219 141.46 136.609 141.377 137.193 141.377C137.639 141.377 137.917 141.349 138.084 141.321C138.224 141.293 138.363 141.181 138.474 141.042C138.586 140.902 138.641 140.651 138.669 140.288H138.029C138.001 140.344 137.973 140.4 137.917 140.428C137.862 140.456 137.583 140.456 137.082 140.456C136.302 140.456 135.718 140.707 135.356 141.181C134.994 141.684 134.799 142.633 134.799 144.084C134.799 145.2 134.882 145.981 135.049 146.456C135.216 146.93 135.439 147.293 135.718 147.572C135.996 147.851 136.386 147.963 136.831 147.963C137.472 147.963 137.945 147.684 138.279 147.153C138.613 146.623 138.78 145.953 138.78 145.172C138.78 144.363 138.613 143.693 138.251 143.219C137.806 142.716 137.36 142.493 136.803 142.493ZM137.639 146.679C137.416 147.07 137.138 147.237 136.803 147.237C136.469 147.237 136.163 147.07 135.912 146.763C135.662 146.456 135.55 145.953 135.55 145.312C135.55 144.67 135.662 144.139 135.857 143.777C136.079 143.414 136.386 143.219 136.776 143.219C137.138 143.219 137.416 143.386 137.639 143.721C137.862 144.056 137.973 144.53 137.973 145.116C137.973 145.786 137.862 146.288 137.639 146.679Z" fill="white"/>
<path d="M131.262 142.353C130.705 142.353 130.232 142.577 129.842 143.051C129.48 143.525 129.285 144.223 129.285 145.144C129.285 146.065 129.48 146.763 129.842 147.237C130.204 147.712 130.678 147.935 131.234 147.935C131.819 147.935 132.265 147.712 132.655 147.237C133.017 146.763 133.211 146.037 133.211 145.088C133.211 144.195 133.017 143.525 132.655 143.051C132.293 142.605 131.819 142.353 131.262 142.353ZM132.125 146.707C131.875 147.042 131.596 147.209 131.262 147.209C130.9 147.209 130.622 147.042 130.371 146.707C130.121 146.372 130.009 145.842 130.009 145.144C130.009 144.446 130.121 143.944 130.371 143.609C130.622 143.274 130.9 143.107 131.234 143.107C131.596 143.107 131.875 143.274 132.125 143.609C132.376 143.944 132.487 144.474 132.487 145.144C132.487 145.842 132.376 146.372 132.125 146.707Z" fill="white"/>
<path d="M101.412 145.591V144.391C101.412 143.888 101.384 143.526 101.301 143.274C101.245 143.023 101.078 142.8 100.827 142.633C100.577 142.465 100.243 142.381 99.7972 142.381C99.2403 142.381 98.7947 142.521 98.4884 142.772C98.1821 143.023 97.9872 143.442 97.8758 144.028L98.5998 144.168C98.6834 143.777 98.7947 143.498 98.9618 143.358C99.1289 143.219 99.3795 143.135 99.7136 143.135C100.076 143.135 100.354 143.247 100.521 143.47C100.633 143.609 100.716 143.888 100.716 144.251V144.474C100.438 144.586 100.02 144.698 99.4352 144.781C99.0175 144.837 98.6834 144.949 98.4606 145.088C98.2378 145.228 98.0708 145.423 97.9594 145.647C97.848 145.898 97.7645 146.149 97.7645 146.456C97.7645 146.93 97.9037 147.293 98.1543 147.572C98.4049 147.851 98.7669 147.991 99.2124 147.991C99.4909 147.991 99.7693 147.935 100.02 147.795C100.271 147.656 100.521 147.461 100.772 147.209C100.8 147.461 100.855 147.684 100.911 147.879H101.663C101.579 147.684 101.524 147.461 101.468 147.237C101.412 146.986 101.412 146.456 101.412 145.591ZM100.688 145.479C100.688 145.926 100.633 146.261 100.521 146.484C100.41 146.707 100.271 146.902 100.048 147.042C99.8529 147.181 99.6022 147.237 99.3516 147.237C99.0732 147.237 98.8783 147.154 98.7112 147.014C98.572 146.874 98.4884 146.651 98.4884 146.4C98.4884 146.233 98.5163 146.093 98.5998 145.954C98.6555 145.814 98.7669 145.73 98.8783 145.674C98.9897 145.619 99.2124 145.535 99.5187 145.479C100.048 145.395 100.41 145.284 100.688 145.144V145.479Z" fill="white"/>
<path d="M151.005 146.567V142.493H150.308V147.851H151.06L153.065 143.777V147.851H153.761V142.493H153.009L151.005 146.567Z" fill="white"/>
<path d="M145.38 143.247H146.716V147.851H147.44V143.247H148.777V142.493H145.38V143.247Z" fill="white"/>
<path d="M126.974 142.688C126.696 142.493 126.417 142.381 126.083 142.381C125.832 142.381 125.61 142.437 125.415 142.577C125.22 142.716 125.053 142.912 124.886 143.191V142.493H124.217V149.916H124.941V147.321C125.081 147.544 125.248 147.712 125.443 147.823C125.638 147.935 125.832 147.991 126.055 147.991C126.556 147.991 126.974 147.74 127.336 147.265C127.698 146.763 127.893 146.065 127.893 145.172C127.893 144.586 127.809 144.084 127.642 143.665C127.447 143.191 127.225 142.884 126.974 142.688ZM126.779 146.707C126.556 147.042 126.278 147.209 126 147.209C125.693 147.209 125.415 147.042 125.192 146.707C124.969 146.372 124.858 145.87 124.858 145.172C124.858 144.474 124.969 143.944 125.22 143.581C125.443 143.219 125.721 143.051 126 143.051C126.306 143.051 126.584 143.219 126.807 143.554C127.03 143.888 127.141 144.419 127.141 145.116C127.113 145.842 127.002 146.372 126.779 146.707Z" fill="white"/>
<path d="M110.545 144.586H109.627V142.493H108.903V147.851H110.685C111.269 147.851 111.715 147.684 111.966 147.349C112.216 147.014 112.355 146.651 112.355 146.205C112.355 145.758 112.216 145.367 111.938 145.033C111.659 144.726 111.186 144.586 110.545 144.586ZM111.409 146.819C111.269 147.014 110.907 147.098 110.378 147.098H109.627V145.312H110.462C110.907 145.312 111.186 145.395 111.381 145.535C111.548 145.702 111.631 145.926 111.631 146.205C111.631 146.428 111.576 146.651 111.409 146.819Z" fill="white"/>
<path d="M103.723 146.009C103.723 146.512 103.696 146.791 103.668 146.874C103.64 146.958 103.584 147.014 103.528 147.042C103.473 147.07 103.278 147.07 102.944 147.07V147.823C103.166 147.851 103.334 147.851 103.501 147.851C103.779 147.851 103.974 147.767 104.113 147.628C104.252 147.488 104.336 147.321 104.392 147.098C104.42 146.902 104.447 146.484 104.447 145.87V143.191H106.341V147.795H107.065V142.437H103.751V146.009H103.723Z" fill="white"/>
<path d="M116.699 144.698H114.694V142.493H113.998V147.851H114.694V145.479H116.699V147.851H117.395V142.493H116.699V144.698Z" fill="white"/>
<path d="M120.041 142.493H119.317V147.851H120.041V142.493Z" fill="white"/>
<path d="M42.5475 144.698H40.5705V142.493H39.8465V147.851H40.5705V145.479H42.5475V147.851H43.2715V142.493H42.5475V144.698Z" fill="white"/>
<path d="M14.0061 142.493H11.0824C11.0824 144.726 10.8596 146.26 10.3584 147.098H9.9964V149.358H10.5811V147.851H13.8669V149.358H14.4516V147.098H14.0061V142.493ZM13.2821 147.098H11.0267C11.3887 146.26 11.6114 144.977 11.6671 143.247H13.2821V147.098Z" fill="white"/>
<path d="M16.8185 142.493H16.0945V147.851H16.8185V142.493Z" fill="white"/>
<path d="M7.46254 145.591C7.35116 145.981 7.23978 146.4 7.18409 146.791C7.10055 146.344 6.98917 145.953 6.87779 145.563L6.01459 142.493H5.23492L6.8221 147.823C6.65503 148.381 6.57149 148.688 6.54365 148.744C6.48796 148.884 6.40442 148.967 6.29304 149.051C6.20951 149.107 6.07028 149.135 5.93105 149.135C5.81967 149.135 5.68045 149.107 5.54122 149.051L5.62476 149.888C5.79183 149.972 5.9589 150 6.07028 150C6.2652 150 6.43227 149.944 6.59934 149.833C6.73857 149.721 6.87779 149.553 7.01702 149.33C7.1284 149.079 7.29547 148.633 7.51823 147.907L9.10541 142.465H8.38143L7.46254 145.591Z" fill="white"/>
<path d="M2.00486 142.493C1.39226 142.493 0.918892 142.828 0.556904 143.526C0.556904 143.023 0.612595 142.605 0.723975 142.298C0.807511 141.963 0.974582 141.739 1.19734 141.6C1.42011 141.46 1.80994 141.377 2.39469 141.377C2.84021 141.377 3.11866 141.349 3.28573 141.321C3.42496 141.293 3.56419 141.181 3.67557 141.042C3.78695 140.902 3.84264 140.651 3.87048 140.288H3.23004C3.2022 140.344 3.17435 140.4 3.11866 140.428C3.06297 140.456 2.78452 140.456 2.28331 140.456C1.50364 140.456 0.918892 140.707 0.556904 141.181C0.194916 141.684 0 142.633 0 144.084C0 145.2 0.0835356 145.981 0.250607 146.456C0.417678 146.93 0.64044 147.293 0.918892 147.572C1.19734 147.851 1.58718 147.963 2.0327 147.963C2.67314 147.963 3.14651 147.684 3.48065 147.153C3.81479 146.623 3.98186 145.953 3.98186 145.172C3.98186 144.363 3.81479 143.693 3.45281 143.219C3.03513 142.716 2.5896 142.493 2.00486 142.493ZM2.86806 146.679C2.64529 147.07 2.36684 147.237 2.0327 147.237C1.69856 147.237 1.39226 147.07 1.14165 146.763C0.891047 146.456 0.779666 145.953 0.779666 145.312C0.779666 144.67 0.891047 144.139 1.08596 143.777C1.30872 143.414 1.61502 143.219 2.00486 143.219C2.36684 143.219 2.64529 143.386 2.86806 143.721C3.09082 144.056 3.2022 144.53 3.2022 145.116C3.2022 145.786 3.09082 146.288 2.86806 146.679Z" fill="white"/>
<path d="M29.5715 146.009C29.5715 146.512 29.5437 146.791 29.5158 146.874C29.488 146.958 29.4323 147.014 29.3766 147.042C29.3209 147.07 29.126 147.07 28.7919 147.07V147.823C29.0146 147.851 29.1817 147.851 29.3488 147.851C29.6272 147.851 29.8221 147.767 29.9614 147.628C30.1006 147.488 30.1841 147.321 30.2398 147.098C30.2677 146.902 30.2955 146.484 30.2955 145.87V143.191H32.189V147.795H32.913V142.437H29.5994V146.009H29.5715Z" fill="white"/>
<path d="M36.4215 144.586H35.5026V142.493H34.7786V147.851H36.5607C37.1455 147.851 37.591 147.684 37.8416 147.349C38.0922 147.014 38.2314 146.651 38.2314 146.205C38.2314 145.758 38.0922 145.367 37.8138 145.033C37.5353 144.726 37.0619 144.586 36.4215 144.586ZM37.2847 146.819C37.1455 147.014 36.7835 147.098 36.2544 147.098H35.5026V145.312H36.338C36.7835 145.312 37.0619 145.395 37.2568 145.535C37.4239 145.702 37.5075 145.926 37.5075 146.205C37.5075 146.428 37.4239 146.651 37.2847 146.819Z" fill="white"/>
<path d="M21.4965 145.033C21.8306 144.781 21.9977 144.391 21.9977 143.888C21.9977 143.553 21.9142 143.274 21.7749 143.023C21.6079 142.8 21.4408 142.633 21.2459 142.577C21.051 142.493 20.7725 142.465 20.3827 142.465H18.7398V147.823H20.6333C21.1902 147.823 21.6079 147.684 21.8306 147.377C22.0534 147.098 22.1926 146.735 22.1926 146.316C22.1926 145.702 21.9699 145.256 21.4965 145.033ZM19.4359 143.246H20.2156C20.6054 143.246 20.856 143.302 21.0231 143.414C21.1902 143.526 21.2737 143.721 21.2737 144C21.2737 144.167 21.218 144.335 21.1345 144.446C21.051 144.558 20.9396 144.642 20.8282 144.698C20.7168 144.726 20.4941 144.753 20.1878 144.753H19.4359V143.246ZM21.218 146.902C21.051 147.042 20.7725 147.098 20.3827 147.098H19.4359V145.479H20.2991C20.7447 145.479 21.051 145.535 21.1902 145.674C21.3573 145.814 21.4408 146.009 21.4408 146.288C21.4686 146.567 21.3851 146.763 21.218 146.902Z" fill="white"/>
<path d="M25.5897 142.353C25.005 142.353 24.5595 142.605 24.1696 143.079C23.8076 143.553 23.6127 144.279 23.6127 145.2C23.6127 146.093 23.8076 146.763 24.1696 147.237C24.5316 147.712 25.0328 147.935 25.6176 147.935C26.091 147.935 26.4808 147.795 26.8149 147.488C27.1212 147.209 27.344 146.763 27.4832 146.205L26.7592 146.093C26.5365 146.819 26.1745 147.181 25.6454 147.181C25.3113 147.181 25.005 147.042 24.7822 146.707C24.5316 146.4 24.4202 145.953 24.3924 145.339H27.5389V145.088C27.5389 144.195 27.344 143.498 26.982 143.023C26.5922 142.605 26.1466 142.353 25.5897 142.353ZM24.3924 144.642C24.4202 144.167 24.5316 143.805 24.7544 143.525C24.9771 143.246 25.2556 143.107 25.5619 143.107C25.9239 143.107 26.2023 143.274 26.4251 143.609C26.5922 143.832 26.6757 144.195 26.7036 144.642H24.3924Z" fill="white"/>
<path d="M55.0778 109.06H49.5644L55.4676 117.405L49.286 126.251H54.6044L58.1129 120.921L61.6493 126.251H67.1626L60.8417 117.209L66.6335 109.06H61.3151L58.1129 113.805L55.0778 109.06Z" fill="white"/>
<path d="M109.237 40.5767L75.2377 27.5441L62.8188 34.7162L62.7909 41.3023L75.906 30.2232L109.237 40.5767Z" fill="#38A23C"/>
<path d="M109.237 58.9394L75.2377 45.9069L62.8188 53.079L62.7909 59.665L75.906 48.5859L109.237 58.9394Z" fill="#38A23C"/>
<path d="M109.237 49.7581L75.2377 36.7256L62.8188 43.8977L62.7909 50.4837L75.906 39.4047L109.237 49.7581Z" fill="#38A23C"/>
<path d="M109.237 31.3954L75.2377 18.3628L62.8188 25.5628L62.7909 32.1209L75.906 21.0419L109.237 31.3954Z" fill="#38A23C"/>
<path d="M109.237 22.2139L75.2377 9.18134L62.8188 16.3813L62.7909 22.9395L75.906 11.8604L109.237 22.2139Z" fill="#38A23C"/>
<path d="M109.237 13.0605L75.2377 0L62.8188 7.2L62.7909 13.786L75.906 2.67907L109.237 13.0605Z" fill="#38A23C"/>
<path d="M109.237 77.3023L75.2377 64.2418L62.8188 71.4418L62.7909 78.0279L75.906 66.9488L109.237 77.3023Z" fill="#38A23C"/>
<path d="M109.237 95.6651L75.2377 82.6046L62.8188 89.8046L62.7909 96.3907L75.906 85.3116L109.237 95.6651Z" fill="#38A23C"/>
<path d="M109.237 68.1208L75.2377 55.0603L62.8188 62.2603L62.7909 68.8463L75.906 57.7673L109.237 68.1208Z" fill="#38A23C"/>
<path d="M109.237 86.4836L75.2377 73.4231L62.8188 80.6231L62.7909 87.2091L75.906 76.1301L109.237 86.4836Z" fill="#38A23C"/>
<path d="M136.636 65.3302L136.609 61.9814L130.316 58.3256L113.079 64.9395L129.981 59.693L136.636 65.3302Z" fill="#38A23C"/>
<path d="M136.636 69.9627L136.609 66.6418L130.316 62.986L113.079 69.5999L129.981 64.3534L136.636 69.9627Z" fill="#38A23C"/>
<path d="M136.636 60.6699L136.609 57.321L130.316 53.6931L113.079 60.3071L129.981 55.0327L136.636 60.6699Z" fill="#38A23C"/>
<path d="M136.636 74.6234L136.609 71.3024L130.316 67.6466L113.079 74.2606L129.981 69.0141L136.636 74.6234Z" fill="#38A23C"/>
<path d="M136.636 97.8978L136.609 94.5489L130.316 90.921L113.079 97.535L129.981 92.2885L136.636 97.8978Z" fill="#38A23C"/>
<path d="M136.636 93.2372L136.609 89.9163L130.316 86.2605L113.079 92.8744L129.981 87.6279L136.636 93.2372Z" fill="#38A23C"/>
<path d="M136.636 79.2838L136.609 75.9349L130.316 72.307L113.079 78.921L129.981 73.6744L136.636 79.2838Z" fill="#38A23C"/>
<path d="M136.636 88.5768L136.609 85.2559L130.316 81.6001L113.079 88.2141L129.981 82.9675L136.636 88.5768Z" fill="#38A23C"/>
<path d="M136.636 83.9441L136.609 80.5953L130.316 76.9395L113.079 83.5813L129.981 78.3069L136.636 83.9441Z" fill="#38A23C"/>
<path d="M136.636 102.558L136.609 99.2093L130.316 95.5814L113.079 102.195L129.981 96.921L136.636 102.558Z" fill="#38A23C"/>
<path d="M59.5052 68.4L34.6116 58.8279L25.5062 64.1023L25.4783 68.9302L35.1128 60.8093L59.5052 68.4Z" fill="#38A23C"/>
<path d="M59.5052 54.9488L34.6116 45.3767L25.5062 50.6511L25.4783 55.479L35.1128 47.3581L59.5052 54.9488Z" fill="#38A23C"/>
<path d="M59.5052 61.6744L34.6116 52.1023L25.5062 57.3767L25.4783 62.2046L35.1128 54.0837L59.5052 61.6744Z" fill="#38A23C"/>
<path d="M59.5052 102.028L34.6116 92.4558L25.5062 97.7302L25.4783 102.558L35.1128 94.4372L59.5052 102.028Z" fill="#38A23C"/>
<path d="M59.5052 41.4977L34.6116 31.9536L25.5062 37.2001L25.4783 42.028L35.1128 33.907L59.5052 41.4977Z" fill="#38A23C"/>
<path d="M59.5052 48.2232L34.6116 38.6511L25.5062 43.9255L25.4783 48.7534L35.1128 40.6325L59.5052 48.2232Z" fill="#38A23C"/>
<path d="M59.5052 95.3022L34.6116 85.7301L25.5062 91.0045L25.4783 95.8324L35.1128 87.7115L59.5052 95.3022Z" fill="#38A23C"/>
<path d="M59.5052 88.5767L34.6116 79.0046L25.5062 84.2791L25.4783 89.107L35.1128 80.986L59.5052 88.5767Z" fill="#38A23C"/>
<path d="M59.5052 75.1256L34.6116 65.5535L25.5062 70.8279L25.4783 75.6558L35.1128 67.5349L59.5052 75.1256Z" fill="#38A23C"/>
<path d="M59.5052 81.8511L34.6116 72.2791L25.5062 77.5535L25.4783 82.3814L35.1128 74.2605L59.5052 81.8511Z" fill="#38A23C"/>
<mask id="mask0_207_502" style="mask-type:alpha" maskUnits="userSpaceOnUse" x="1" y="108" width="65" height="33">
<path d="M65.0464 138.168C65.1021 138.14 65.2413 138.084 65.4084 138C66.8563 134.679 64.7679 133.2 64.7679 133.2C64.6844 132.391 63.0415 131.302 62.4289 130.912C60.0343 129.991 56.0524 130.326 55.9132 130.326C55.4676 130.381 55.0221 130.409 54.5766 130.465C54.2703 130.521 53.964 130.549 53.6577 130.577C47.8937 131.163 43.355 130.716 37.3683 131.888C36.9506 131.972 36.5607 132.028 36.1431 132.084V124.186C36.9784 125.107 37.8138 125.749 38.5656 126.112C39.3453 126.502 40.2085 126.67 41.1552 126.67C43.1601 126.67 44.8308 125.888 46.2509 124.27C47.6431 122.679 48.3393 120.447 48.3393 117.572C48.3393 114.781 47.6431 112.605 46.2509 111.042C44.8586 109.479 43.1601 108.698 41.1831 108.698C40.0414 108.698 39.0111 108.949 38.0644 109.479C37.1177 110.009 36.3937 110.707 35.8368 111.572V109.061H31.6043V131.554C31.0474 131.442 30.5462 131.386 29.9336 131.386C29.6551 131.33 29.3767 131.302 29.0982 131.274C27.0655 131.079 25.1721 131.191 23.1394 131.414C20.9117 131.581 20.6054 131.135 18.6284 130.828C16.2337 130.521 14.1454 131.079 11.8064 131.777C11.6114 131.861 11.4444 131.888 11.2494 131.916C11.4444 131.916 11.6114 131.888 11.8064 131.833C12.4468 131.637 13.0872 131.498 13.7555 131.386C15.7325 131.107 11.9177 132.14 11.862 132.14C11.4165 132.363 10.971 132.335 10.4976 132.279C9.71796 132.14 8.9383 131.888 8.18648 131.637C7.10051 131.302 6.18162 131.023 5.06781 130.884C4.17677 130.828 3.00727 130.856 2.14407 131.219C2.14407 131.219 3.954 130.912 5.03997 131.023C6.15378 131.163 7.07267 131.442 8.13079 131.805C8.85476 132.056 9.55089 132.307 10.3027 132.447C10.1913 132.447 10.0521 132.447 9.94072 132.475C9.66227 132.502 9.21675 132.586 9.02183 132.865C8.68769 132.754 8.3257 132.614 7.99156 132.502C7.23974 132.251 6.54361 132 5.79179 131.833C5.54118 131.777 5.26273 131.721 5.01212 131.693C4.98428 131.693 4.98428 131.693 5.01212 131.693C6.09809 131.888 6.93344 132.168 7.96371 132.558C8.77123 132.865 9.52305 133.172 10.3584 133.368C10.9988 133.507 11.5001 133.563 12.1405 133.395H12.1962C12.6139 133.451 13.0315 133.535 13.4492 133.563C13.0594 133.647 12.6696 133.758 12.2519 133.898C11.8064 134.037 11.4444 134.065 11.0267 134.009C11.4165 134.037 11.8064 134.037 12.2519 133.898C12.5303 133.814 13.0315 133.702 13.5884 133.563C13.9504 133.591 14.3403 133.563 14.7579 133.479C15.8996 133.284 16.4287 133.535 16.9577 133.842C15.9274 133.87 15.0642 133.981 14.1175 134.177C13.5884 134.177 13.1151 134.121 12.5303 133.981C13.0872 134.093 13.5606 134.177 14.0897 134.177C13.6163 134.288 13.1429 134.4 12.6139 134.54C11.5836 134.4 10.9153 134.288 12.0013 134.54C12.1127 134.568 12.224 134.595 12.3633 134.623C11.5836 134.791 10.9988 134.735 10.247 134.54C9.38382 134.288 8.60416 133.954 7.79664 133.619C6.84991 133.228 5.9867 132.893 5.01212 132.726C4.98428 132.726 4.95643 132.726 4.95643 132.726L5.01212 132.754C5.9867 133.116 6.76637 133.563 7.68526 134.149C7.82449 134.233 7.93587 134.316 8.0751 134.4C7.93587 134.344 7.79664 134.261 7.65742 134.233C7.32328 134.093 6.98913 133.954 6.65499 133.814C6.73853 133.87 6.82206 133.954 6.96129 134.009C6.293 133.73 5.68041 133.507 4.95643 133.368C3.84262 133.172 3.00727 133.2 1.94915 133.647C1.89346 133.674 1.83777 133.674 1.83777 133.702C1.83777 133.702 1.86561 133.702 1.89346 133.702C1.9213 133.702 1.97699 133.73 2.00484 133.73C3.06296 133.312 3.87047 133.256 4.98428 133.423C5.70825 133.563 6.34869 133.758 7.01698 134.037C7.23974 134.149 7.49035 134.288 7.65742 134.372C8.49277 134.791 9.27244 135.154 10.1635 135.433C10.9432 135.656 11.5557 135.74 12.2797 135.628C13.2265 135.879 14.0618 136.019 15.2035 135.879C15.2035 135.879 15.9553 136.186 16.7906 136.549C16.0667 136.074 15.6768 135.656 15.1756 135.656C14.201 135.768 13.4771 135.684 12.6974 135.516C12.8923 135.461 13.0594 135.433 13.2543 135.377C14.3124 135.154 15.3148 135.014 16.4008 135.098C16.4843 135.098 16.54 135.126 16.6236 135.126C17.264 135.544 17.9323 136.13 19.7979 136.074C20.0207 136.158 20.2435 136.242 20.4941 136.298C20.7447 136.409 20.8839 136.493 20.856 136.549C20.689 136.577 11.3051 135.042 19.7422 136.716C20.3827 136.744 21.1067 136.661 21.7192 136.521C22.2483 136.577 22.8609 136.605 23.6127 136.549C24.0582 136.521 24.5038 136.465 24.9214 136.437C25.7568 136.465 26.5643 136.493 27.4275 136.354C27.4832 136.354 27.5389 136.326 27.5946 136.326C28.0958 136.326 28.6249 136.354 29.1539 136.381C28.7084 136.465 28.1793 136.577 27.5389 136.772C25.534 137.079 24.0304 136.493 21.8028 136.828C18.2386 137.386 16.373 135.851 16.8742 136.214C18.8512 137.498 23.7241 137.386 20.2435 137.47C19.3524 137.442 18.6563 137.302 18.0715 137.107C18.7955 137.498 19.1853 137.805 18.4335 137.749C17.5146 137.609 16.8742 137.302 16.4287 137.023C17.3754 137.637 18.9904 138.335 21.942 137.805C22.5268 137.721 23.0558 137.665 23.6406 137.693C25.2556 137.637 25.896 137.916 27.706 137.637C29.6273 137.079 30.212 137.079 32.1055 137.386C32.9687 137.526 33.6927 137.609 34.361 137.665C35.5305 138.112 36.7 138.614 37.8138 139.033C39.9857 139.814 42.2133 140.177 44.4409 140.316C44.4688 140.316 59.9229 139.34 64.0161 138.53C64.3224 138.419 64.6844 138.279 65.0464 138.168ZM10.08 135.321C9.21675 135.042 8.40924 134.679 7.57388 134.288C7.40681 134.205 7.26758 134.149 7.10051 134.093C7.26758 134.149 7.40681 134.233 7.57388 134.288C8.40924 134.651 9.21675 135.014 10.08 135.293C10.8039 135.516 11.3887 135.628 12.057 135.572C11.3887 135.628 10.7761 135.516 10.08 135.321ZM15.2035 134.986C14.9807 135.014 14.7301 135.042 14.5073 135.07C14.925 134.986 15.3148 134.93 15.7325 134.902H15.7882C15.5933 134.93 15.3984 134.958 15.2035 134.986ZM16.1224 134.874C16.373 134.847 16.6793 134.847 16.9577 134.847C16.6514 134.847 16.4008 134.847 16.1224 134.874ZM11.9456 132.391C13.0872 132.028 14.1732 131.721 15.3148 131.442C18.0994 130.8 13.0315 132.363 12.1126 132.67C11.8899 132.642 11.6671 132.586 11.4165 132.558H11.3608C11.5557 132.502 11.7507 132.474 11.9456 132.391ZM12.0848 133.144C11.9456 133.2 11.8064 133.228 11.6671 133.256C11.5836 133.256 11.5001 133.256 11.4444 133.284H11.5279C11.1659 133.34 10.8039 133.284 10.3862 133.228C9.94072 133.144 9.52305 133.005 9.10537 132.865L9.96857 132.558C10.4698 132.502 10.9432 132.53 11.4444 132.586C11.6393 132.614 11.8342 132.642 12.0291 132.67H12.0013L11.9456 132.698C11.7785 132.809 11.9456 132.726 12.0013 132.698L12.1126 132.67C12.3633 132.698 12.6139 132.726 12.8645 132.754C12.6139 132.837 12.3354 132.921 12.057 133.005C11.6114 133.2 11.4722 133.256 12.057 133.033C12.2797 132.949 12.586 132.865 12.9202 132.754C13.0315 132.754 13.1708 132.781 13.2821 132.781C12.8366 132.949 12.4189 133.061 12.0848 133.144ZM13.0315 133.2C13.5606 133.088 14.034 132.977 14.4516 132.893C13.9783 133.061 13.5049 133.144 13.0315 133.2ZM13.3378 132.809C13.2265 132.809 13.1151 132.781 13.0037 132.781C13.9783 132.474 15.2313 132.168 15.8996 132.168C15.8996 132.168 14.5352 132.474 13.3378 132.809ZM17.1526 133.005C16.8742 132.865 16.5957 132.754 16.2059 132.67C16.2616 132.67 16.2894 132.67 16.3451 132.67C16.7071 132.726 16.9577 132.865 17.2083 133.005H17.1526ZM17.3197 135.265C17.7652 135.377 18.1551 135.488 18.4892 135.6C18.1272 135.488 17.7095 135.377 17.3197 135.265ZM19.5473 133.116C19.1575 133.228 19.2689 133.172 18.7677 133.061C18.2386 132.949 17.8209 132.921 17.3197 132.977C17.0969 132.865 16.902 132.726 16.6514 132.642C18.0715 132.614 18.9347 132.949 20.1042 133.144C19.9093 133.144 19.7422 133.144 19.5473 133.116ZM21.1902 133.34C21.1902 133.34 21.2459 133.312 21.2737 133.312H21.3016L21.1902 133.34ZM26.3416 132.168C25.6454 132.419 24.5873 132.419 23.3343 132.586C23.3064 132.586 23.2507 132.586 23.2229 132.586C19.8815 132.837 18.7398 131.47 15.0086 132.195C14.2846 132.363 13.6163 132.558 12.9202 132.754C12.6696 132.726 12.4468 132.698 12.1962 132.642C18.3221 130.661 18.1551 132.447 23.195 132.195C24.4759 132.056 25.6454 131.972 26.8149 131.972C26.6757 132.056 26.5086 132.112 26.3416 132.168ZM37.1733 113.581C37.8973 112.716 38.8162 112.298 39.93 112.298C40.9881 112.298 41.8792 112.744 42.6032 113.609C43.3271 114.474 43.6891 115.814 43.6891 117.628C43.6891 119.554 43.355 120.949 42.631 121.814C41.9349 122.651 41.0438 123.098 40.0136 123.098C38.9276 123.098 37.9809 122.623 37.229 121.702C36.4772 120.781 36.0874 119.358 36.0874 117.405C36.0874 115.702 36.4494 114.447 37.1733 113.581ZM49.3139 137.777C48.1444 137.972 46.0003 138.67 44.9143 137.888C44.6637 137.637 46.3623 137.414 48.1165 137.274C48.4228 137.302 48.7569 137.302 49.0911 137.33C49.9264 137.358 50.734 137.414 51.5415 137.442C50.7896 137.554 50.0657 137.665 49.3139 137.777ZM50.372 134.261C48.7848 134.205 47.1419 134.037 47.4482 133.647C48.3114 132.865 49.8429 133.479 51.0124 133.647C51.9313 133.758 52.8502 133.786 53.7691 133.786C52.6274 133.926 51.4858 134.093 50.372 134.261Z" fill="#38A23C"/>
</mask>
<g mask="url(#mask0_207_502)">
<path d="M31.4373 131.442L36.3102 132L38.8162 130.465L64.2946 128.93L64.9907 126.419C65.362 126.465 66.1881 126.558 66.5222 126.558C66.8564 126.558 67.2184 126.372 67.3576 126.279L67.636 125.442C67.7289 121.582 68.1651 113.442 69.1675 111.768C70.4206 109.675 70.9775 107.302 67.9145 106.465C64.8515 105.628 56.7764 106.884 47.0306 105.07C37.2848 103.256 28.2351 107.442 25.8682 107.302C23.5014 107.163 21.8307 100.605 21.2738 99.7676C20.8282 99.0978 15.9832 100.047 13.6163 100.605L3.17438 127.814L31.4373 131.442Z" fill="white"/>
</g>
</svg>
