<svg width="267" height="69" viewBox="0 0 267 69" fill="none" xmlns="http://www.w3.org/2000/svg">
<path d="M55.8136 26.9791L33.1579 18.3138L24.8823 23.0825L24.8638 27.4615L33.6032 20.0951L55.8136 26.9791Z" fill="#38A23C"/>
<path d="M55.8136 39.1883L33.1579 30.5231L24.8823 35.2917L24.8638 39.6707L33.6032 32.3044L55.8136 39.1883Z" fill="#38A23C"/>
<path d="M55.8136 33.0837L33.1579 24.4185L24.8823 29.1871L24.8638 33.5661L33.6032 26.1997L55.8136 33.0837Z" fill="#38A23C"/>
<path d="M55.8136 20.8744L33.1579 12.2092L24.8823 16.9964L24.8638 21.3569L33.6032 13.9905L55.8136 20.8744Z" fill="#38A23C"/>
<path d="M55.8136 14.7698L33.1579 6.10461L24.8823 10.8918L24.8638 15.2523L33.6032 7.8859L55.8136 14.7698Z" fill="#38A23C"/>
<path d="M55.8136 8.68377L33.1579 0L24.8823 4.78721L24.8638 9.16621L33.6032 1.78129L55.8136 8.68377Z" fill="#38A23C"/>
<path d="M55.8136 51.3975L33.1579 42.7137L24.8823 47.501L24.8638 51.88L33.6032 44.5136L55.8136 51.3975Z" fill="#38A23C"/>
<path d="M55.8136 63.6067L33.1579 54.923L24.8823 59.7102L24.8638 64.0892L33.6032 56.7228L55.8136 63.6067Z" fill="#38A23C"/>
<path d="M55.8136 45.2929L33.1579 36.6091L24.8823 41.3963L24.8638 45.7753L33.6032 38.409L55.8136 45.2929Z" fill="#38A23C"/>
<path d="M55.8136 57.5021L33.1579 48.8184L24.8823 53.6056L24.8638 57.9846L33.6032 50.6182L55.8136 57.5021Z" fill="#38A23C"/>
<path d="M74.0719 43.4375L74.0533 41.2109L69.8599 38.7802L58.3743 43.1777L69.6372 39.6893L74.0719 43.4375Z" fill="#38A23C"/>
<path d="M74.0719 46.5176L74.0533 44.3095L69.8599 41.8788L58.3743 46.2763L69.6372 42.788L74.0719 46.5176Z" fill="#38A23C"/>
<path d="M74.0719 40.3387L74.0533 38.1121L69.8599 35.7L58.3743 40.0975L69.6372 36.5906L74.0719 40.3387Z" fill="#38A23C"/>
<path d="M74.0719 49.6163L74.0533 47.4083L69.8599 44.9775L58.3743 49.3751L69.6372 45.8867L74.0719 49.6163Z" fill="#38A23C"/>
<path d="M74.0719 65.0912L74.0533 62.8646L69.8599 60.4524L58.3743 64.8499L69.6372 61.3616L74.0719 65.0912Z" fill="#38A23C"/>
<path d="M74.0719 61.9925L74.0533 59.7845L69.8599 57.3538L58.3743 61.7513L69.6372 58.263L74.0719 61.9925Z" fill="#38A23C"/>
<path d="M74.0719 52.7149L74.0533 50.4883L69.8599 48.0762L58.3743 52.4737L69.6372 48.9854L74.0719 52.7149Z" fill="#38A23C"/>
<path d="M74.0719 58.8938L74.0533 56.6857L69.8599 54.255L58.3743 58.6526L69.6372 55.1642L74.0719 58.8938Z" fill="#38A23C"/>
<path d="M74.0719 55.8137L74.0533 53.5871L69.8599 51.1564L58.3743 55.5725L69.6372 52.0656L74.0719 55.8137Z" fill="#38A23C"/>
<path d="M74.0719 68.1899L74.0533 65.9633L69.8599 63.5511L58.3743 67.9487L69.6372 64.4418L74.0719 68.1899Z" fill="#38A23C"/>
<path d="M22.6743 45.4785L6.08606 39.1141L0.0185548 42.621L0 45.8311L6.42005 40.4315L22.6743 45.4785Z" fill="#38A23C"/>
<path d="M22.6743 36.5349L6.08606 30.1705L0.0185548 33.6774L0 36.8875L6.42005 31.4879L22.6743 36.5349Z" fill="#38A23C"/>
<path d="M22.6743 41.0067L6.08606 34.6423L0.0185548 38.1492L0 41.3593L6.42005 35.9597L22.6743 41.0067Z" fill="#38A23C"/>
<path d="M22.6743 67.8374L6.08606 61.473L0.0185548 64.9799L0 68.19L6.42005 62.7904L22.6743 67.8374Z" fill="#38A23C"/>
<path d="M22.6743 27.5914L6.08606 21.2456L0.0185548 24.734L0 27.944L6.42005 22.5445L22.6743 27.5914Z" fill="#38A23C"/>
<path d="M22.6743 32.0631L6.08606 25.6987L0.0185548 29.2056L0 32.4157L6.42005 27.0161L22.6743 32.0631Z" fill="#38A23C"/>
<path d="M22.6743 63.3656L6.08606 57.0012L0.0185548 60.5081L0 63.7182L6.42005 58.3186L22.6743 63.3656Z" fill="#38A23C"/>
<path d="M22.6743 58.8938L6.08606 52.5294L0.0185548 56.0363L0 59.2464L6.42005 53.8468L22.6743 58.8938Z" fill="#38A23C"/>
<path d="M22.6743 49.9502L6.08606 43.5858L0.0185548 47.0927L0 50.3028L6.42005 44.9032L22.6743 49.9502Z" fill="#38A23C"/>
<path d="M22.6743 54.422L6.08606 48.0576L0.0185548 51.5645L0 54.7746L6.42005 49.375L22.6743 54.422Z" fill="#38A23C"/>
<path d="M108.686 35.7673H98.4996L96.6998 40.4391H87.5093L99.2271 13.6335H108.111L119.829 40.4391H110.485L108.686 35.7673ZM106.197 29.2574L103.593 22.5177L100.989 29.2574H106.197Z" fill="white"/>
<path d="M135.936 19.1095C137.774 19.1095 139.459 19.5563 140.991 20.4498C142.548 21.3178 143.773 22.5815 144.667 24.2409C145.586 25.9003 146.045 27.815 146.045 29.9849C146.045 32.1549 145.586 34.0696 144.667 35.729C143.773 37.3629 142.548 38.6266 140.991 39.5201C139.459 40.3881 137.774 40.8221 135.936 40.8221C133.613 40.8221 131.838 40.2221 130.613 39.0223V47.8681H121.959V19.4925H130.192V21.2157C131.443 19.8116 133.357 19.1095 135.936 19.1095ZM133.868 34.0824C134.864 34.0824 135.681 33.725 136.319 33.0102C136.957 32.2953 137.276 31.2869 137.276 29.9849C137.276 28.683 136.957 27.6746 136.319 26.9597C135.681 26.2194 134.864 25.8492 133.868 25.8492C132.872 25.8492 132.055 26.2194 131.417 26.9597C130.779 27.6746 130.46 28.683 130.46 29.9849C130.46 31.2869 130.779 32.2953 131.417 33.0102C132.055 33.725 132.872 34.0824 133.868 34.0824Z" fill="white"/>
<path d="M161.612 40.4391L158.74 35.9588L155.523 40.4391H146.141L154.068 30.0615L146.371 19.4925H156.136L159.123 23.9345L162.263 19.4925H171.338L163.641 29.6786L171.53 40.4391H161.612Z" fill="white"/>
<path d="M175.465 19.4925H184.119V40.4391H175.465V19.4925ZM179.792 17.8076C178.235 17.8076 176.971 17.3991 176.001 16.5822C175.056 15.7397 174.584 14.6802 174.584 13.4038C174.584 12.1273 175.056 11.0806 176.001 10.2637C176.971 9.42123 178.235 9 179.792 9C181.375 9 182.639 9.3957 183.583 10.1871C184.528 10.9785 185 11.9997 185 13.2506C185 14.5781 184.528 15.6759 183.583 16.5439C182.639 17.3863 181.375 17.8076 179.792 17.8076Z" fill="white"/>
<path d="M188.5 13.6335H211.744V20.4498H197.384V23.5516H203.779C207.047 23.5516 209.549 24.2537 211.285 25.6578C213.046 27.0363 213.927 29.0404 213.927 31.6699C213.927 34.4015 212.931 36.5459 210.94 38.1032C208.949 39.6605 206.179 40.4391 202.63 40.4391H188.5V13.6335ZM202.018 34.1207C202.911 34.1207 203.6 33.9292 204.086 33.5463C204.596 33.1633 204.851 32.6144 204.851 31.8996C204.851 30.5211 203.907 29.8318 202.018 29.8318H197.384V34.1207H202.018Z" fill="white"/>
<path d="M239.98 19.4925L231.364 40.8604C230.266 43.592 228.901 45.5067 227.267 46.6044C225.633 47.7022 223.629 48.251 221.255 48.251C220.08 48.251 218.893 48.0723 217.693 47.7149C216.519 47.3831 215.587 46.9363 214.898 46.3746L217.77 40.4391C218.204 40.771 218.689 41.0391 219.225 41.2433C219.787 41.4475 220.323 41.5496 220.833 41.5496C221.778 41.5496 222.493 41.2688 222.978 40.7072L214.17 19.4925H223.054L227.382 30.7125L231.785 19.4925H239.98Z" fill="white"/>
<path d="M266.026 33.6611V44.5748H258.023V40.4391H246.458V44.5748H238.455V33.6611H239.067C240.293 33.6611 241.148 33.0867 241.633 31.9379C242.118 30.7636 242.399 29.0787 242.476 26.8832L242.744 19.4925H263.231V33.6611H266.026ZM250.249 27.5342C250.198 29.1425 250.083 30.4189 249.905 31.3635C249.751 32.2826 249.432 33.0484 248.947 33.6611H254.615V26.2322H250.287L250.249 27.5342Z" fill="white"/>
<path d="M89 50.8365H94.0643V51.4186H89.7221V53.5346H91.9871C92.8048 53.5346 93.4246 53.6917 93.8467 54.0059C94.2753 54.32 94.4896 54.7759 94.4896 55.3734C94.4896 55.9956 94.2588 56.473 93.7972 56.8057C93.3422 57.1383 92.6861 57.3046 91.8289 57.3046H89V50.8365ZM91.819 56.7594C92.4586 56.7594 92.94 56.6455 93.2631 56.4176C93.5928 56.1896 93.7577 55.8508 93.7577 55.4011C93.7577 54.9576 93.5961 54.628 93.273 54.4124C92.9565 54.1907 92.4718 54.0798 91.819 54.0798H89.7221V56.7594H91.819Z" fill="white"/>
<path d="M100.295 52.4443L97.6935 57.8868C97.4825 58.3426 97.2385 58.666 96.9615 58.857C96.6846 59.0479 96.3516 59.1434 95.9625 59.1434C95.712 59.1434 95.4779 59.1065 95.2603 59.0325C95.0427 58.9586 94.8547 58.8477 94.6965 58.6999L95.0229 58.2102C95.2866 58.4566 95.6032 58.5798 95.9724 58.5798C96.2098 58.5798 96.4109 58.5182 96.5758 58.395C96.7472 58.2718 96.9055 58.0623 97.0506 57.7666L97.2781 57.2954L94.9536 52.4443H95.6856L97.644 56.5746L99.6025 52.4443H100.295Z" fill="white"/>
<path d="M106.231 56.7317V58.4781H105.569V57.3046H100.91V58.4781H100.247V56.7317H100.544C100.893 56.7132 101.131 56.473 101.256 56.011C101.381 55.549 101.467 54.9022 101.513 54.0705L101.582 52.4443H105.42V56.7317H106.231ZM102.156 54.1075C102.123 54.7974 102.061 55.3673 101.968 55.8169C101.876 56.2605 101.711 56.5654 101.474 56.7317H104.718V53.0264H102.216L102.156 54.1075Z" fill="white"/>
<path d="M107.6 52.4443H108.302V57.3046H107.6V52.4443ZM107.956 51.3816C107.811 51.3816 107.689 51.3354 107.59 51.243C107.491 51.1506 107.442 51.0397 107.442 50.9104C107.442 50.7872 107.491 50.6794 107.59 50.587C107.689 50.4946 107.811 50.4484 107.956 50.4484C108.101 50.4484 108.223 50.4946 108.322 50.587C108.421 50.6732 108.47 50.7779 108.47 50.9011C108.47 51.0367 108.421 51.1506 108.322 51.243C108.223 51.3354 108.101 51.3816 107.956 51.3816Z" fill="white"/>
<path d="M113.618 54.7913C114.324 54.9453 114.676 55.3426 114.676 55.9833C114.676 56.4083 114.508 56.7348 114.172 56.9627C113.836 57.1907 113.335 57.3046 112.669 57.3046H110.305V52.4443H112.599C113.193 52.4443 113.658 52.5521 113.994 52.7677C114.33 52.9833 114.498 53.2913 114.498 53.6917C114.498 53.9566 114.419 54.1845 114.261 54.3755C114.109 54.5603 113.895 54.6989 113.618 54.7913ZM110.987 54.6065H112.55C112.952 54.6065 113.259 54.5356 113.47 54.3939C113.687 54.2523 113.796 54.0459 113.796 53.7748C113.796 53.5038 113.687 53.3005 113.47 53.165C113.259 53.0295 112.952 52.9617 112.55 52.9617H110.987V54.6065ZM112.639 56.7872C113.087 56.7872 113.424 56.7194 113.648 56.5839C113.872 56.4484 113.984 56.2358 113.984 55.9463C113.984 55.6568 113.882 55.4443 113.677 55.3087C113.473 55.167 113.15 55.0962 112.708 55.0962H110.987V56.7872H112.639Z" fill="white"/>
<path d="M120.872 55.0777H116.52C116.56 55.5829 116.767 55.9925 117.143 56.3067C117.519 56.6147 117.994 56.7687 118.568 56.7687C118.891 56.7687 119.187 56.7163 119.458 56.6116C119.728 56.5007 119.962 56.3406 120.16 56.1311L120.556 56.5562C120.325 56.8149 120.035 57.012 119.685 57.1475C119.342 57.2831 118.963 57.3508 118.548 57.3508C118.014 57.3508 117.539 57.2461 117.124 57.0367C116.715 56.8211 116.395 56.5254 116.164 56.1496C115.933 55.7738 115.818 55.3488 115.818 54.8744C115.818 54.4001 115.927 53.9751 116.144 53.5993C116.368 53.2235 116.672 52.9309 117.054 52.7215C117.443 52.512 117.879 52.4073 118.36 52.4073C118.841 52.4073 119.273 52.512 119.656 52.7215C120.038 52.9309 120.338 53.2235 120.556 53.5993C120.773 53.9689 120.882 54.3939 120.882 54.8744L120.872 55.0777ZM118.36 52.9709C117.859 52.9709 117.437 53.1219 117.094 53.4237C116.758 53.7194 116.566 54.1075 116.52 54.588H120.21C120.163 54.1075 119.969 53.7194 119.626 53.4237C119.29 53.1219 118.868 52.9709 118.36 52.9709Z" fill="white"/>
<path d="M126.584 52.4443V57.3046H125.881V53.0264H123.389L123.32 54.2276C123.267 55.2379 123.142 56.0141 122.944 56.5562C122.746 57.0983 122.393 57.3693 121.885 57.3693C121.747 57.3693 121.579 57.3447 121.381 57.2954L121.43 56.7317C121.549 56.7564 121.631 56.7687 121.678 56.7687C121.948 56.7687 122.152 56.6516 122.291 56.4176C122.429 56.1835 122.522 55.8939 122.568 55.549C122.614 55.204 122.654 54.7482 122.687 54.1814L122.776 52.4443H126.584Z" fill="white"/>
<path d="M130.815 54.1629C131.468 54.1691 131.963 54.3046 132.299 54.5695C132.642 54.8344 132.813 55.2163 132.813 55.7153C132.813 56.2328 132.629 56.6301 132.26 56.9073C131.897 57.1845 131.369 57.32 130.677 57.3139L128.58 57.3046V52.4443H129.282V54.1445L130.815 54.1629ZM130.637 56.8149C131.119 56.8211 131.481 56.7317 131.725 56.5469C131.976 56.356 132.101 56.0788 132.101 55.7153C132.101 55.358 131.979 55.0931 131.735 54.9206C131.491 54.7482 131.125 54.6588 130.637 54.6527L129.282 54.6342V56.7964L130.637 56.8149Z" fill="white"/>
<path d="M134.153 52.4443H134.856V54.5972H138.13V52.4443H138.832V57.3046H138.13V55.1609H134.856V57.3046H134.153V52.4443Z" fill="white"/>
<path d="M142.974 57.3508C142.473 57.3508 142.022 57.2461 141.619 57.0367C141.217 56.8211 140.901 56.5254 140.67 56.1496C140.439 55.7738 140.324 55.3488 140.324 54.8744C140.324 54.4001 140.439 53.9751 140.67 53.5993C140.901 53.2235 141.217 52.9309 141.619 52.7215C142.022 52.512 142.473 52.4073 142.974 52.4073C143.476 52.4073 143.927 52.512 144.33 52.7215C144.732 52.9309 145.045 53.2235 145.269 53.5993C145.5 53.9751 145.615 54.4001 145.615 54.8744C145.615 55.3488 145.5 55.7738 145.269 56.1496C145.045 56.5254 144.732 56.8211 144.33 57.0367C143.927 57.2461 143.476 57.3508 142.974 57.3508ZM142.974 56.7687C143.344 56.7687 143.673 56.6917 143.964 56.5377C144.26 56.3775 144.491 56.1527 144.656 55.8631C144.821 55.5736 144.903 55.244 144.903 54.8744C144.903 54.5048 144.821 54.1753 144.656 53.8857C144.491 53.5962 144.26 53.3744 143.964 53.2204C143.673 53.0603 143.344 52.9802 142.974 52.9802C142.605 52.9802 142.272 53.0603 141.975 53.2204C141.685 53.3744 141.455 53.5962 141.283 53.8857C141.118 54.1753 141.036 54.5048 141.036 54.8744C141.036 55.244 141.118 55.5736 141.283 55.8631C141.455 56.1527 141.685 56.3775 141.975 56.5377C142.272 56.6917 142.605 56.7687 142.974 56.7687Z" fill="white"/>
<path d="M151.851 57.3508C151.35 57.3508 150.899 57.2461 150.496 57.0367C150.094 56.8211 149.778 56.5254 149.547 56.1496C149.316 55.7738 149.201 55.3488 149.201 54.8744C149.201 54.4001 149.316 53.9751 149.547 53.5993C149.778 53.2235 150.094 52.9309 150.496 52.7215C150.899 52.512 151.35 52.4073 151.851 52.4073C152.353 52.4073 152.804 52.512 153.206 52.7215C153.609 52.9309 153.922 53.2235 154.146 53.5993C154.377 53.9751 154.492 54.4001 154.492 54.8744C154.492 55.3488 154.377 55.7738 154.146 56.1496C153.922 56.5254 153.609 56.8211 153.206 57.0367C152.804 57.2461 152.353 57.3508 151.851 57.3508ZM151.851 56.7687C152.221 56.7687 152.55 56.6917 152.841 56.5377C153.137 56.3775 153.368 56.1527 153.533 55.8631C153.698 55.5736 153.78 55.244 153.78 54.8744C153.78 54.5048 153.698 54.1753 153.533 53.8857C153.368 53.5962 153.137 53.3744 152.841 53.2204C152.55 53.0603 152.221 52.9802 151.851 52.9802C151.482 52.9802 151.149 53.0603 150.852 53.2204C150.562 53.3744 150.331 53.5962 150.16 53.8857C149.995 54.1753 149.913 54.5048 149.913 54.8744C149.913 55.244 149.995 55.5736 150.16 55.8631C150.331 56.1527 150.562 56.3775 150.852 56.5377C151.149 56.6917 151.482 56.7687 151.851 56.7687Z" fill="white"/>
<path d="M158.487 54.7728C158.856 54.8529 159.14 54.9915 159.337 55.1886C159.542 55.3857 159.644 55.626 159.644 55.9093C159.644 56.1927 159.539 56.4453 159.327 56.667C159.123 56.8888 158.843 57.0613 158.487 57.1845C158.131 57.3015 157.738 57.3601 157.31 57.3601C156.934 57.3601 156.565 57.3108 156.202 57.2122C155.839 57.1075 155.523 56.9566 155.252 56.7594L155.49 56.2697C155.727 56.436 156.004 56.5654 156.321 56.6578C156.637 56.7502 156.957 56.7964 157.28 56.7964C157.761 56.7964 158.154 56.7132 158.457 56.5469C158.767 56.3744 158.922 56.1434 158.922 55.8539C158.922 55.5952 158.797 55.395 158.546 55.2533C158.296 55.1054 157.953 55.0315 157.517 55.0315H156.627V54.551H157.478C157.867 54.551 158.18 54.4833 158.418 54.3477C158.655 54.2061 158.774 54.0182 158.774 53.7841C158.774 53.5254 158.638 53.3221 158.368 53.1742C158.104 53.0264 157.758 52.9525 157.329 52.9525C156.769 52.9525 156.215 53.0849 155.668 53.3498L155.47 52.8416C156.09 52.5397 156.733 52.3888 157.399 52.3888C157.794 52.3888 158.15 52.4443 158.467 52.5551C158.79 52.6599 159.041 52.8108 159.219 53.0079C159.403 53.205 159.496 53.433 159.496 53.6917C159.496 53.9381 159.403 54.1568 159.219 54.3477C159.041 54.5387 158.797 54.6804 158.487 54.7728Z" fill="white"/>
<path d="M166.312 56.7317V58.4781H165.65V57.3046H160.991V58.4781H160.328V56.7317H160.625C160.975 56.7132 161.212 56.473 161.337 56.011C161.462 55.549 161.548 54.9022 161.594 54.0705L161.664 52.4443H165.501V56.7317H166.312ZM162.237 54.1075C162.204 54.7974 162.142 55.3673 162.049 55.8169C161.957 56.2605 161.792 56.5654 161.555 56.7317H164.799V53.0264H162.297L162.237 54.1075Z" fill="white"/>
<path d="M169.827 57.3508C169.326 57.3508 168.875 57.2461 168.472 57.0367C168.07 56.8211 167.754 56.5254 167.523 56.1496C167.292 55.7738 167.177 55.3488 167.177 54.8744C167.177 54.4001 167.292 53.9751 167.523 53.5993C167.754 53.2235 168.07 52.9309 168.472 52.7215C168.875 52.512 169.326 52.4073 169.827 52.4073C170.329 52.4073 170.78 52.512 171.183 52.7215C171.585 52.9309 171.898 53.2235 172.122 53.5993C172.353 53.9751 172.468 54.4001 172.468 54.8744C172.468 55.3488 172.353 55.7738 172.122 56.1496C171.898 56.5254 171.585 56.8211 171.183 57.0367C170.78 57.2461 170.329 57.3508 169.827 57.3508ZM169.827 56.7687C170.197 56.7687 170.526 56.6917 170.817 56.5377C171.113 56.3775 171.344 56.1527 171.509 55.8631C171.674 55.5736 171.756 55.244 171.756 54.8744C171.756 54.5048 171.674 54.1753 171.509 53.8857C171.344 53.5962 171.113 53.3744 170.817 53.2204C170.526 53.0603 170.197 52.9802 169.827 52.9802C169.458 52.9802 169.125 53.0603 168.828 53.2204C168.538 53.3744 168.307 53.5962 168.136 53.8857C167.971 54.1753 167.889 54.5048 167.889 54.8744C167.889 55.244 167.971 55.5736 168.136 55.8631C168.307 56.1527 168.538 56.3775 168.828 56.5377C169.125 56.6917 169.458 56.7687 169.827 56.7687Z" fill="white"/>
<path d="M176.492 52.5644C176.973 52.5644 177.402 52.666 177.777 52.8693C178.16 53.0664 178.457 53.3467 178.668 53.7102C178.879 54.0675 178.984 54.4771 178.984 54.9391C178.984 55.4135 178.872 55.8354 178.648 56.205C178.43 56.5685 178.124 56.8519 177.728 57.0551C177.332 57.2584 176.877 57.3601 176.363 57.3601C175.499 57.3601 174.83 57.0767 174.355 56.51C173.88 55.9432 173.643 55.1609 173.643 54.1629C173.643 53.1219 173.854 52.3241 174.276 51.7697C174.705 51.2153 175.371 50.8395 176.274 50.6424L178.608 50.1434L178.727 50.744L176.531 51.2153C175.786 51.3693 175.239 51.6434 174.889 52.0377C174.54 52.4258 174.348 53.0017 174.315 53.7656C174.526 53.3898 174.82 53.0972 175.196 52.8878C175.572 52.6722 176.004 52.5644 176.492 52.5644ZM176.383 56.8149C176.745 56.8149 177.068 56.7379 177.352 56.5839C177.642 56.4237 177.866 56.202 178.025 55.9186C178.189 55.6352 178.272 55.3149 178.272 54.9576C178.272 54.6003 178.193 54.2861 178.035 54.0151C177.876 53.744 177.652 53.5346 177.362 53.3868C177.078 53.2328 176.752 53.1558 176.383 53.1558C176.013 53.1558 175.684 53.2328 175.394 53.3868C175.11 53.5346 174.886 53.744 174.721 54.0151C174.563 54.2861 174.484 54.6003 174.484 54.9576C174.484 55.3149 174.563 55.6352 174.721 55.9186C174.886 56.202 175.113 56.4237 175.403 56.5839C175.694 56.7379 176.02 56.8149 176.383 56.8149Z" fill="white"/>
<path d="M184.714 52.4443V57.3046H184.011V53.0264H181.519L181.449 54.2276C181.397 55.2379 181.271 56.0141 181.074 56.5562C180.876 57.0983 180.523 57.3693 180.015 57.3693C179.877 57.3693 179.709 57.3447 179.511 57.2954L179.56 56.7317C179.679 56.7564 179.761 56.7687 179.808 56.7687C180.078 56.7687 180.282 56.6516 180.421 56.4176C180.559 56.1835 180.652 55.8939 180.698 55.549C180.744 55.204 180.783 54.7482 180.816 54.1814L180.905 52.4443H184.714Z" fill="white"/>
<path d="M191.181 52.4073C191.669 52.4073 192.107 52.512 192.496 52.7215C192.892 52.9309 193.202 53.2235 193.426 53.5993C193.65 53.9751 193.762 54.4001 193.762 54.8744C193.762 55.3488 193.65 55.7738 193.426 56.1496C193.202 56.5254 192.892 56.8211 192.496 57.0367C192.107 57.2461 191.669 57.3508 191.181 57.3508C190.719 57.3508 190.3 57.2584 189.925 57.0736C189.549 56.8827 189.242 56.6208 189.005 56.2882C188.774 55.9555 188.639 55.5736 188.599 55.1424H187.412V57.3046H186.71V52.4443H187.412V54.5418H188.609C188.662 54.1229 188.804 53.7533 189.034 53.433C189.272 53.1065 189.575 52.8539 189.944 52.6753C190.314 52.4966 190.726 52.4073 191.181 52.4073ZM191.181 56.7779C191.537 56.7779 191.857 56.6978 192.14 56.5377C192.43 56.3775 192.658 56.1527 192.823 55.8631C192.988 55.5736 193.07 55.244 193.07 54.8744C193.07 54.5048 192.988 54.1753 192.823 53.8857C192.658 53.5962 192.43 53.3744 192.14 53.2204C191.857 53.0603 191.537 52.9802 191.181 52.9802C190.825 52.9802 190.502 53.0603 190.211 53.2204C189.928 53.3744 189.704 53.5962 189.539 53.8857C189.374 54.1753 189.292 54.5048 189.292 54.8744C189.292 55.244 189.374 55.5736 189.539 55.8631C189.704 56.1527 189.928 56.3775 190.211 56.5377C190.502 56.6978 190.825 56.7779 191.181 56.7779Z" fill="white"/>
<path d="M198.582 54.7913C199.287 54.9453 199.64 55.3426 199.64 55.9833C199.64 56.4083 199.472 56.7348 199.136 56.9627C198.799 57.1907 198.298 57.3046 197.632 57.3046H195.268V52.4443H197.563C198.156 52.4443 198.621 52.5521 198.958 52.7677C199.294 52.9833 199.462 53.2913 199.462 53.6917C199.462 53.9566 199.383 54.1845 199.225 54.3755C199.073 54.5603 198.859 54.6989 198.582 54.7913ZM195.951 54.6065H197.513C197.916 54.6065 198.222 54.5356 198.433 54.3939C198.651 54.2523 198.76 54.0459 198.76 53.7748C198.76 53.5038 198.651 53.3005 198.433 53.165C198.222 53.0295 197.916 52.9617 197.513 52.9617H195.951V54.6065ZM197.602 56.7872C198.051 56.7872 198.387 56.7194 198.611 56.5839C198.836 56.4484 198.948 56.2358 198.948 55.9463C198.948 55.6568 198.845 55.4443 198.641 55.3087C198.437 55.167 198.113 55.0962 197.672 55.0962H195.951V56.7872H197.602Z" fill="white"/>
<path d="M203.076 52.4073C203.755 52.4073 204.276 52.5675 204.639 52.8878C205.002 53.202 205.183 53.6701 205.183 54.2923V57.3046H204.51V56.5469C204.352 56.7995 204.118 56.9966 203.808 57.1383C203.505 57.28 203.142 57.3508 202.72 57.3508C202.14 57.3508 201.678 57.2215 201.335 56.9627C200.992 56.704 200.821 56.3621 200.821 55.9371C200.821 55.5243 200.979 55.1917 201.296 54.9391C201.619 54.6866 202.13 54.5603 202.829 54.5603H204.481V54.2646C204.481 53.8457 204.355 53.5284 204.105 53.3128C203.854 53.0911 203.488 52.9802 203.007 52.9802C202.677 52.9802 202.361 53.0325 202.057 53.1373C201.754 53.2358 201.494 53.3744 201.276 53.5531L200.959 53.0634C201.223 52.8539 201.54 52.6937 201.909 52.5829C202.278 52.4658 202.667 52.4073 203.076 52.4073ZM202.829 56.8334C203.225 56.8334 203.564 56.7502 203.848 56.5839C204.131 56.4114 204.342 56.165 204.481 55.8447V55.05H202.849C201.958 55.05 201.513 55.3395 201.513 55.9186C201.513 56.202 201.629 56.4268 201.86 56.5931C202.09 56.7533 202.413 56.8334 202.829 56.8334Z" fill="white"/>
<path d="M211.306 52.4443V57.3046H210.603V53.0264H208.111L208.042 54.2276C207.989 55.2379 207.864 56.0141 207.666 56.5562C207.468 57.0983 207.115 57.3693 206.607 57.3693C206.469 57.3693 206.301 57.3447 206.103 57.2954L206.152 56.7317C206.271 56.7564 206.354 56.7687 206.4 56.7687C206.67 56.7687 206.874 56.6516 207.013 56.4176C207.151 56.1835 207.244 55.8939 207.29 55.549C207.336 55.204 207.376 54.7482 207.409 54.1814L207.498 52.4443H211.306Z" fill="white"/>
<path d="M215.538 54.1629C216.19 54.1691 216.685 54.3046 217.021 54.5695C217.364 54.8344 217.536 55.2163 217.536 55.7153C217.536 56.2328 217.351 56.6301 216.982 56.9073C216.619 57.1845 216.091 57.32 215.399 57.3139L213.302 57.3046V52.4443H214.004V54.1445L215.538 54.1629ZM215.359 56.8149C215.841 56.8211 216.204 56.7317 216.448 56.5469C216.698 56.356 216.823 56.0788 216.823 55.7153C216.823 55.358 216.701 55.0931 216.457 54.9206C216.213 54.7482 215.847 54.6588 215.359 54.6527L214.004 54.6342V56.7964L215.359 56.8149Z" fill="white"/>
<path d="M218.876 52.4443H219.578V54.5972H222.852V52.4443H223.554V57.3046H222.852V55.1609H219.578V57.3046H218.876V52.4443Z" fill="white"/>
<path d="M225.55 52.4443H226.252V57.3046H225.55V52.4443ZM225.906 51.3816C225.761 51.3816 225.639 51.3354 225.54 51.243C225.441 51.1506 225.392 51.0397 225.392 50.9104C225.392 50.7872 225.441 50.6794 225.54 50.587C225.639 50.4946 225.761 50.4484 225.906 50.4484C226.051 50.4484 226.173 50.4946 226.272 50.587C226.371 50.6732 226.421 50.7779 226.421 50.9011C226.421 51.0367 226.371 51.1506 226.272 51.243C226.173 51.3354 226.051 51.3816 225.906 51.3816Z" fill="white"/>
<path d="M233.524 52.4073C234.012 52.4073 234.454 52.512 234.849 52.7215C235.245 52.9247 235.555 53.2143 235.779 53.59C236.003 53.9658 236.115 54.3939 236.115 54.8744C236.115 55.3611 236.003 55.7923 235.779 56.1681C235.555 56.5438 235.245 56.8365 234.849 57.0459C234.46 57.2492 234.019 57.3508 233.524 57.3508C233.102 57.3508 232.719 57.2707 232.377 57.1106C232.04 56.9443 231.763 56.704 231.546 56.3898V59.0972H230.843V52.4443H231.516V53.4052C231.727 53.0849 232.004 52.8385 232.347 52.666C232.696 52.4935 233.089 52.4073 233.524 52.4073ZM233.475 56.7687C233.837 56.7687 234.167 56.6917 234.464 56.5377C234.76 56.3775 234.991 56.1527 235.156 55.8631C235.327 55.5736 235.413 55.244 235.413 54.8744C235.413 54.5048 235.327 54.1783 235.156 53.895C234.991 53.6054 234.76 53.3806 234.464 53.2204C234.167 53.0603 233.837 52.9802 233.475 52.9802C233.105 52.9802 232.772 53.0603 232.476 53.2204C232.185 53.3806 231.955 53.6054 231.783 53.895C231.618 54.1783 231.536 54.5048 231.536 54.8744C231.536 55.244 231.618 55.5736 231.783 55.8631C231.955 56.1527 232.185 56.3775 232.476 56.5377C232.772 56.6917 233.105 56.7687 233.475 56.7687Z" fill="white"/>
<path d="M239.771 57.3508C239.27 57.3508 238.818 57.2461 238.416 57.0367C238.013 56.8211 237.697 56.5254 237.466 56.1496C237.235 55.7738 237.12 55.3488 237.12 54.8744C237.12 54.4001 237.235 53.9751 237.466 53.5993C237.697 53.2235 238.013 52.9309 238.416 52.7215C238.818 52.512 239.27 52.4073 239.771 52.4073C240.272 52.4073 240.724 52.512 241.126 52.7215C241.528 52.9309 241.841 53.2235 242.065 53.5993C242.296 53.9751 242.412 54.4001 242.412 54.8744C242.412 55.3488 242.296 55.7738 242.065 56.1496C241.841 56.5254 241.528 56.8211 241.126 57.0367C240.724 57.2461 240.272 57.3508 239.771 57.3508ZM239.771 56.7687C240.14 56.7687 240.47 56.6917 240.76 56.5377C241.057 56.3775 241.287 56.1527 241.452 55.8631C241.617 55.5736 241.699 55.244 241.699 54.8744C241.699 54.5048 241.617 54.1753 241.452 53.8857C241.287 53.5962 241.057 53.3744 240.76 53.2204C240.47 53.0603 240.14 52.9802 239.771 52.9802C239.401 52.9802 239.068 53.0603 238.772 53.2204C238.482 53.3744 238.251 53.5962 238.079 53.8857C237.914 54.1753 237.832 54.5048 237.832 54.8744C237.832 55.244 237.914 55.5736 238.079 55.8631C238.251 56.1527 238.482 56.3775 238.772 56.5377C239.068 56.6917 239.401 56.7687 239.771 56.7687Z" fill="white"/>
<path d="M246.435 52.5644C246.916 52.5644 247.345 52.666 247.721 52.8693C248.103 53.0664 248.4 53.3467 248.611 53.7102C248.822 54.0675 248.927 54.4771 248.927 54.9391C248.927 55.4135 248.815 55.8354 248.591 56.205C248.373 56.5685 248.067 56.8519 247.671 57.0551C247.276 57.2584 246.821 57.3601 246.306 57.3601C245.442 57.3601 244.773 57.0767 244.298 56.51C243.824 55.9432 243.586 55.1609 243.586 54.1629C243.586 53.1219 243.797 52.3241 244.219 51.7697C244.648 51.2153 245.314 50.8395 246.217 50.6424L248.552 50.1434L248.67 50.744L246.474 51.2153C245.729 51.3693 245.182 51.6434 244.832 52.0377C244.483 52.4258 244.292 53.0017 244.259 53.7656C244.47 53.3898 244.763 53.0972 245.139 52.8878C245.515 52.6722 245.947 52.5644 246.435 52.5644ZM246.326 56.8149C246.689 56.8149 247.012 56.7379 247.295 56.5839C247.585 56.4237 247.81 56.202 247.968 55.9186C248.133 55.6352 248.215 55.3149 248.215 54.9576C248.215 54.6003 248.136 54.2861 247.978 54.0151C247.82 53.744 247.595 53.5346 247.305 53.3868C247.022 53.2328 246.695 53.1558 246.326 53.1558C245.957 53.1558 245.627 53.2328 245.337 53.3868C245.053 53.5346 244.829 53.744 244.664 54.0151C244.506 54.2861 244.427 54.6003 244.427 54.9576C244.427 55.3149 244.506 55.6352 244.664 55.9186C244.829 56.202 245.057 56.4237 245.347 56.5839C245.637 56.7379 245.963 56.8149 246.326 56.8149Z" fill="white"/>
<path d="M252.579 57.3508C252.078 57.3508 251.626 57.2461 251.224 57.0367C250.822 56.8211 250.505 56.5254 250.274 56.1496C250.044 55.7738 249.928 55.3488 249.928 54.8744C249.928 54.4001 250.044 53.9751 250.274 53.5993C250.505 53.2235 250.822 52.9309 251.224 52.7215C251.626 52.512 252.078 52.4073 252.579 52.4073C253.08 52.4073 253.532 52.512 253.934 52.7215C254.336 52.9309 254.65 53.2235 254.874 53.5993C255.105 53.9751 255.22 54.4001 255.22 54.8744C255.22 55.3488 255.105 55.7738 254.874 56.1496C254.65 56.5254 254.336 56.8211 253.934 57.0367C253.532 57.2461 253.08 57.3508 252.579 57.3508ZM252.579 56.7687C252.948 56.7687 253.278 56.6917 253.568 56.5377C253.865 56.3775 254.096 56.1527 254.26 55.8631C254.425 55.5736 254.508 55.244 254.508 54.8744C254.508 54.5048 254.425 54.1753 254.26 53.8857C254.096 53.5962 253.865 53.3744 253.568 53.2204C253.278 53.0603 252.948 52.9802 252.579 52.9802C252.21 52.9802 251.877 53.0603 251.58 53.2204C251.29 53.3744 251.059 53.5962 250.888 53.8857C250.723 54.1753 250.64 54.5048 250.64 54.8744C250.64 55.244 250.723 55.5736 250.888 55.8631C251.059 56.1527 251.29 56.3775 251.58 56.5377C251.877 56.6917 252.21 56.7687 252.579 56.7687Z" fill="white"/>
<path d="M260.187 53.0264H258.219V57.3046H257.517V53.0264H255.548V52.4443H260.187V53.0264Z" fill="white"/>
<path d="M261.203 52.4443H261.905V56.3067L265.377 52.4443H266V57.3046H265.298V53.4422L261.836 57.3046H261.203V52.4443Z" fill="white"/>
</svg>
