<svg width="32" height="32" viewBox="0 0 32 32" fill="none" xmlns="http://www.w3.org/2000/svg">
<path fill-rule="evenodd" clip-rule="evenodd" d="M31.5808 2.37555L24.1747 9.78166H29.2052C30.0437 9.78166 30.6026 10.3406 30.6026 11.179C30.6026 12.0175 30.0437 12.5764 29.2052 12.5764H20.821C20.6812 12.5764 20.4017 12.5764 20.262 12.4367C19.9825 12.2969 19.7031 12.0175 19.5633 11.738C19.4236 11.5983 19.4236 11.3188 19.4236 11.179V2.79476C19.4236 1.95633 19.9825 1.39738 20.821 1.39738C21.6594 1.39738 22.2183 1.95633 22.2183 2.79476V7.82533L29.6245 0.419214C30.1834 -0.139738 31.0218 -0.139738 31.5808 0.419214C32.1397 0.978166 32.1397 1.81659 31.5808 2.37555ZM30.6026 23.6157V27.8079C30.6026 28.9258 30.1834 30.0437 29.345 30.7424C28.5066 31.441 27.5284 32 26.4105 32H25.9913C21.5197 31.441 17.048 29.9039 13.2751 27.5284C9.78166 25.2926 6.70742 22.2183 4.47162 18.7249C1.95633 14.952 0.419214 10.4803 0 6.00873C0 4.89083 0.279476 3.77293 0.978166 2.9345C1.67686 2.09607 2.65502 1.53712 3.77293 1.39738H4.19214H8.38428C10.4803 1.39738 12.2969 2.9345 12.5764 5.03057C12.7162 6.28821 12.9956 7.54585 13.4148 8.66376C13.9738 10.2009 13.5546 11.8777 12.4367 13.1354L11.4585 14.1135C13.1354 16.6288 15.2314 18.8646 17.8865 20.5415L18.8646 19.5633C19.9825 18.4454 21.7991 18.0262 23.3362 18.5852C24.4541 19.0044 25.7118 19.2838 26.9694 19.4236C29.0655 19.7031 30.6026 21.5196 30.6026 23.6157ZM26.5502 22.2183C27.2489 22.3581 27.8079 22.917 27.8079 23.6157V27.8079C27.8079 28.2271 27.6681 28.5066 27.3886 28.786C27.1092 29.0655 26.8297 29.2052 26.2707 29.2052C22.2183 28.786 18.3057 27.3886 14.8122 25.1528C11.5983 23.1965 8.94323 20.4017 6.84716 17.1878C4.61135 13.6943 3.21397 9.78166 2.79476 5.72926C2.79476 5.31004 2.9345 5.03057 3.07424 4.75109C3.35371 4.47162 3.77293 4.19214 4.19214 4.19214H8.38428C9.08297 4.19214 9.78166 4.75109 9.78166 5.44978C10.0611 6.84716 10.3406 8.24454 10.8996 9.64192C11.0393 10.0611 10.8996 10.7598 10.6201 11.0393L8.80349 12.8559C8.38428 13.2751 8.24454 13.9738 8.38428 14.5328C10.4803 18.3057 13.5546 21.3799 17.3275 23.476C17.8865 23.7555 18.5852 23.6157 19.0044 23.1965L20.821 21.3799C21.2402 20.9607 21.7991 20.9607 22.3581 21.1004C23.7555 21.6594 25.1528 22.0786 26.5502 22.2183Z" fill="black"/>
<mask id="mask0_304_2121" style="mask-type:luminance" maskUnits="userSpaceOnUse" x="0" y="0" width="32" height="32">
<path fill-rule="evenodd" clip-rule="evenodd" d="M31.5808 2.37555L24.1747 9.78166H29.2052C30.0437 9.78166 30.6026 10.3406 30.6026 11.179C30.6026 12.0175 30.0437 12.5764 29.2052 12.5764H20.821C20.6812 12.5764 20.4017 12.5764 20.262 12.4367C19.9825 12.2969 19.7031 12.0175 19.5633 11.738C19.4236 11.5983 19.4236 11.3188 19.4236 11.179V2.79476C19.4236 1.95633 19.9825 1.39738 20.821 1.39738C21.6594 1.39738 22.2183 1.95633 22.2183 2.79476V7.82533L29.6245 0.419214C30.1834 -0.139738 31.0218 -0.139738 31.5808 0.419214C32.1397 0.978166 32.1397 1.81659 31.5808 2.37555ZM30.6026 23.6157V27.8079C30.6026 28.9258 30.1834 30.0437 29.345 30.7424C28.5066 31.441 27.5284 32 26.4105 32H25.9913C21.5197 31.441 17.048 29.9039 13.2751 27.5284C9.78166 25.2926 6.70742 22.2183 4.47162 18.7249C1.95633 14.952 0.419214 10.4803 0 6.00873C0 4.89083 0.279476 3.77293 0.978166 2.9345C1.67686 2.09607 2.65502 1.53712 3.77293 1.39738H4.19214H8.38428C10.4803 1.39738 12.2969 2.9345 12.5764 5.03057C12.7162 6.28821 12.9956 7.54585 13.4148 8.66376C13.9738 10.2009 13.5546 11.8777 12.4367 13.1354L11.4585 14.1135C13.1354 16.6288 15.2314 18.8646 17.8865 20.5415L18.8646 19.5633C19.9825 18.4454 21.7991 18.0262 23.3362 18.5852C24.4541 19.0044 25.7118 19.2838 26.9694 19.4236C29.0655 19.7031 30.6026 21.5196 30.6026 23.6157ZM26.5502 22.2183C27.2489 22.3581 27.8079 22.917 27.8079 23.6157V27.8079C27.8079 28.2271 27.6681 28.5066 27.3886 28.786C27.1092 29.0655 26.8297 29.2052 26.2707 29.2052C22.2183 28.786 18.3057 27.3886 14.8122 25.1528C11.5983 23.1965 8.94323 20.4017 6.84716 17.1878C4.61135 13.6943 3.21397 9.78166 2.79476 5.72926C2.79476 5.31004 2.9345 5.03057 3.07424 4.75109C3.35371 4.47162 3.77293 4.19214 4.19214 4.19214H8.38428C9.08297 4.19214 9.78166 4.75109 9.78166 5.44978C10.0611 6.84716 10.3406 8.24454 10.8996 9.64192C11.0393 10.0611 10.8996 10.7598 10.6201 11.0393L8.80349 12.8559C8.38428 13.2751 8.24454 13.9738 8.38428 14.5328C10.4803 18.3057 13.5546 21.3799 17.3275 23.476C17.8865 23.7555 18.5852 23.6157 19.0044 23.1965L20.821 21.3799C21.2402 20.9607 21.7991 20.9607 22.3581 21.1004C23.7555 21.6594 25.1528 22.0786 26.5502 22.2183Z" fill="white"/>
</mask>
<g mask="url(#mask0_304_2121)">
<rect width="32" height="32" fill="white"/>
</g>
</svg>
